<?xml version="1.0" standalone="no"?>
<!DOCTYPE svg PUBLIC "-//W3C//DTD SVG 1.1//EN" "http://www.w3.org/Graphics/SVG/1.1/DTD/svg11.dtd" >
<!--
2014-6-25: Created.
-->
<svg xmlns="http://www.w3.org/2000/svg">
<metadata>
Created by FontForge 20120731 at Wed Jun 25 20:00:44 2014
 By Matthew McClure
Created by Matthew McClure with FontForge 2.0 (http://fontforge.sf.net)
</metadata>
<defs>
<font id="VideoJS" horiz-adv-x="384" >
  <font-face 
    font-family="VideoJS"
    font-weight="500"
    font-stretch="normal"
    units-per-em="512"
    panose-1="2 0 6 3 0 0 0 0 0 0"
    ascent="448"
    descent="-64"
    bbox="-0.254834 -64 512 448"
    underline-thickness="25.6"
    underline-position="-51.2"
    unicode-range="U+25B6-F115"
  />
    <missing-glyph />
    <glyph glyph-name="uniF101" unicode="&#xf101;" horiz-adv-x="416" 
d="M208 -16v0c-115 0 -208 93 -208 208s93 208 208 208s208 -93 208 -208s-93 -208 -208 -208z" />
    <glyph glyph-name="uniF102" unicode="&#xf102;" horiz-adv-x="500" 
d="M487 350v0c8 -2 13 -8 13 -16v-138v-9v-137c0 -8 -5 -14 -13 -16l-234 -47h-6l-234 47c-8 2 -13 8 -13 16v137v9v138c0 8 5 14 13 16l234 47h6zM217 131v0c1 3 2 6 1 9s-4 6 -7 7l-27 12c-3 1 -7 1 -10 0s-6 -4 -7 -7c-2 -6 -9 -21 -24 -21c-21 0 -36 25 -36 61
s15 60 36 60c13 0 20 -10 24 -19c3 -6 11 -9 17 -6l27 12c3 1 5 4 6 7s1 6 0 9c-16 33 -41 51 -74 51c-56 0 -94 -46 -94 -114s38 -114 94 -114c34 0 58 18 74 53zM450 131v0c1 3 2 6 1 9s-4 6 -7 7l-27 12c-3 1 -7 1 -10 0s-6 -4 -7 -7c-2 -6 -10 -21 -25 -21
c-21 0 -35 25 -35 61s14 60 35 60c13 0 21 -10 25 -19c3 -6 11 -9 17 -6l27 12c3 1 5 4 6 7s1 6 0 9c-16 33 -42 51 -75 51c-56 0 -93 -46 -93 -114s37 -114 93 -114c34 0 59 18 75 53z" />
    <glyph glyph-name="uniF103" unicode="&#xf103;" horiz-adv-x="512" 
d="M0 384v0h512v-384h-512v384zM464 192v0c0 27 0 44 -4 80s-23 56 -59 60s-91 4 -138 4h-7h-7c-47 0 -102 0 -138 -4s-55 -24 -59 -60s-4 -53 -4 -80s2 -47 4 -80s19 -56 59 -60s96 -4 145 -4s105 0 145 4s57 27 59 60s4 53 4 80zM372 164v0v4h53c0 -27 -7 -48 -19 -62
s-32 -21 -61 -21c-14 0 -26 2 -36 5s-18 9 -25 17s-12 19 -15 33s-5 30 -5 51s3 39 7 53s9 25 17 33s17 14 27 17s22 5 34 5c25 0 44 -7 57 -21s19 -37 19 -62h-52v1c0 20 -12 33 -27 33s-25 -11 -28 -30c0 0 -2 -11 -2 -29s2 -28 2 -28c1 -17 12 -29 27 -29s27 10 27 29v1z
M195 164v0v4h53c0 -27 -7 -48 -19 -62s-32 -21 -61 -21c-14 0 -26 2 -36 5s-18 9 -25 17s-12 19 -15 33s-5 30 -5 51s3 39 7 53s9 25 17 33s17 14 27 17s22 5 34 5c25 0 44 -7 57 -21s19 -37 19 -62h-52v1c0 20 -12 33 -27 33s-25 -11 -28 -30c0 0 -2 -11 -2 -29
s2 -28 2 -28c1 -17 12 -29 27 -29s27 10 27 29v1z" />
    <glyph glyph-name="uniF104" unicode="&#xf104;" horiz-adv-x="320" 
d="M178 238l64 64l-50 50h128v-128l-50 50l-64 -64zM178 146l28 28l64 -64l50 50v-128h-128l50 50zM142 146l-64 -64l50 -50h-128v128l50 -50l64 64zM142 238l-28 -28l-64 64l-50 -50v128h128l-50 -50z" />
    <glyph glyph-name="uniF105" unicode="&#xf105;" 
d="M384 356l-82 -82l50 -50h-128v128l50 -50l82 82zM384 28l-28 -28l-82 82l-50 -50v128h128l-50 -50zM0 28l82 82l-50 50h128v-128l-50 50l-82 -82zM0 356l28 28l82 -82l50 50v-128h-128l50 50z" />
    <glyph glyph-name="uniF106" unicode="&#xf106;" 
d="M384 154v0h-44c-4 -14 -10 -27 -17 -39l32 -32l-54 -54l-33 32c-12 -7 -24 -11 -38 -15v-46h-76v46c-13 4 -26 8 -38 15l-33 -32l-54 54l32 32c-7 12 -13 25 -17 39h-44v76h43c4 14 9 29 16 41l-30 30l54 54l29 -29c13 8 27 13 42 17v41h76v-41c15 -4 29 -9 42 -17l29 29
l54 -54l-30 -30c7 -12 13 -27 16 -41h43v-76zM192 138v0c30 0 54 24 54 54s-24 54 -54 54s-54 -24 -54 -54s24 -54 54 -54z" />
    <glyph glyph-name="uniF107" unicode="&#xf107;" horiz-adv-x="457" 
d="M428 230v0v0c16 0 29 -17 29 -38s-13 -38 -29 -38h-302c-16 0 -28 17 -28 38s12 38 28 38h302zM428 383v0v0c16 0 29 -17 29 -38s-13 -38 -29 -38h-302c-16 0 -28 17 -28 38s12 38 28 38h302zM428 77v0v0c16 0 29 -17 29 -38s-13 -38 -29 -38h-302c-16 0 -28 17 -28 38
s12 38 28 38h302zM0 345c0 25 13 38 38 38s38 -13 38 -38s-13 -38 -38 -38s-38 13 -38 38zM0 192c0 25 13 39 38 39s38 -14 38 -39s-13 -38 -38 -38s-38 13 -38 38zM0 39c0 25 13 38 38 38s38 -13 38 -38s-13 -38 -38 -38s-38 13 -38 38z" />
    <glyph glyph-name="uniF108" unicode="&#xf108;" 
d="M144 336c0 43 21 64 64 64s64 -21 64 -64s-21 -64 -64 -64s-64 21 -64 64zM0 176c0 32 16 48 48 48s48 -16 48 -48s-16 -48 -48 -48s-48 16 -48 48zM312 288c0 5 3 8 8 8s8 -3 8 -8s-3 -8 -8 -8s-8 3 -8 8zM132 324v0c10 -10 15 -22 15 -36s-5 -26 -15 -36
s-22 -15 -36 -15s-26 5 -36 15s-15 22 -15 36s5 26 15 36s22 15 36 15s26 -5 36 -15zM352 176c0 11 5 16 16 16s16 -5 16 -16s-5 -16 -16 -16s-16 5 -16 16zM297 63c0 16 8 24 24 24s24 -8 24 -24s-8 -24 -24 -24s-24 8 -24 24zM176 16c0 21 11 32 32 32s32 -11 32 -32
s-11 -32 -32 -32s-32 11 -32 32zM56 64c0 27 13 40 40 40s40 -13 40 -40s-13 -40 -40 -40s-40 13 -40 40z" />
    <glyph glyph-name="uniF109" unicode="&#xf109;" horiz-adv-x="448" 
d="M448 222v0c0 -3 0 -6 -1 -9c-4 -8 -15 -12 -23 -7c-4 2 -6 7 -7 11c-1 5 -1 9 -2 14c-4 20 -12 40 -22 58c-12 21 -28 41 -47 56c-18 15 -40 26 -62 33c-21 6 -42 9 -64 9h-4c-3 0 -6 -1 -9 -1c-6 0 -14 -1 -20 -2c-13 -2 -25 -6 -37 -11c-21 -8 -40 -20 -57 -35
s-31 -33 -42 -52c-12 -22 -20 -45 -24 -70c-2 -11 -2 -23 -2 -34c0 -6 0 -11 1 -16c1 -6 2 -13 3 -19c5 -24 14 -47 28 -67c13 -20 29 -38 48 -52c20 -15 42 -26 65 -33c25 -7 50 -9 76 -7c25 2 50 9 73 20c11 5 22 12 32 19s19 15 27 24c4 4 8 9 12 14s7 10 10 15
c6 10 12 20 17 31c4 8 8 16 11 25c2 4 3 9 4 13s1 7 2 11c1 -9 1 -18 -1 -26c-1 -5 -2 -11 -4 -16c-1 -5 -3 -10 -5 -15c-4 -10 -8 -19 -13 -28c-6 -11 -12 -21 -20 -30s-16 -18 -25 -26c-18 -15 -40 -27 -62 -36c-23 -9 -48 -14 -73 -15s-51 3 -75 11c-23 7 -45 19 -65 33
c-19 14 -36 31 -50 50c-7 10 -13 20 -18 31s-9 21 -13 33c-6 18 -9 37 -10 56c-1 20 1 39 5 58c5 24 15 47 28 68c12 19 26 35 42 50s35 27 55 36c23 11 48 19 74 21c10 1 19 1 29 1c13 0 26 -2 38 -4c24 -5 47 -14 68 -26s41 -29 57 -48c15 -18 27 -37 36 -58
c4 -10 7 -21 10 -32c2 -8 5 -17 6 -26z" />
    <glyph glyph-name="uniF10A" unicode="&#xf10a;" horiz-adv-x="256" 
d="M96 12v0c0 -7 -5 -12 -12 -12h-72c-7 0 -12 5 -12 12v360c0 7 5 12 12 12h72c7 0 12 -5 12 -12v-360zM244 384v0c7 0 12 -5 12 -12v-360c0 -7 -5 -12 -12 -12h-72c-7 0 -12 5 -12 12v360c0 7 5 12 12 12h72z" />
    <glyph glyph-name="uni25B6" unicode="&#x25b6;" horiz-adv-x="320" 
d="M309 215v0c7 -6 11 -14 11 -23s-4 -18 -11 -24l-278 -166c-4 -2 -7 -3 -11 -3c-11 0 -20 9 -20 20v0v345v0c0 11 9 20 20 20c4 0 8 -1 11 -3z" />
    <glyph glyph-name="uniF10C" unicode="&#xf10c;" horiz-adv-x="480" 
d="M400 96v0c44 0 80 -36 80 -80s-36 -80 -80 -80s-80 36 -80 80c0 5 0 10 1 14l-186 104c-14 -13 -34 -22 -55 -22c-44 0 -80 36 -80 80s36 80 80 80c21 0 41 -9 55 -22l186 104c-1 5 -1 9 -1 14c0 44 36 80 80 80s80 -36 80 -80s-36 -80 -80 -80c-22 0 -42 9 -56 23
l-186 -102c1 -5 2 -11 2 -17s-1 -12 -2 -17l185 -102c14 14 35 23 57 23z" />
    <glyph glyph-name="uniF10D" unicode="&#xf10d;" horiz-adv-x="448" 
d="M140 143v0l-140 98h171l53 159l53 -159h171l-140 -98l54 -159l-138 99l-138 -99zM224 347v0v-244l107 -76l-43 122l108 75h-131z" />
    <glyph glyph-name="uniF10E" unicode="&#xf10e;" horiz-adv-x="448" 
d="M448 241v0l-140 -98l54 -159l-138 99l-138 -99l54 159l-140 98h171l53 159l53 -159h171zM331 27v0l-43 122l108 75h-131l-41 123l-41 -123h-131l108 -75l-43 -122l107 76z" />
    <glyph glyph-name="uniF10F" unicode="&#xf10f;" horiz-adv-x="448" 
d="M448 241v0l-140 -98l54 -159l-138 99l-138 -99l54 159l-140 98h171l53 159l53 -159h171z" />
    <glyph glyph-name="uniF110" unicode="&#xf110;" 
d="M373 384v0c6 0 11 -5 11 -11v-362c0 -6 -5 -11 -11 -11h-362c-6 0 -11 5 -11 11v362c0 6 5 11 11 11h362z" />
    <glyph glyph-name="uniF111" unicode="&#xf111;" 
d="M192 352v0v0c106 0 192 -69 192 -154s-85 -150 -191 -150c-27 0 -52 3 -75 11h-2v0c-3 1 -6 2 -10 2s-9 -1 -12 -2h1h-1c-1 0 -9 -4 -10 -4l-50 -22l-2 -1h-3h-3c-6 1 -8 6 -7 10v0s17 57 17 58c0 4 -1 8 -3 11v0v0v0l1 -1l-4 4c-19 24 -30 53 -30 84
c0 85 86 154 192 154z" />
    <glyph glyph-name="uniF112" unicode="&#xf112;" horiz-adv-x="448" 
d="M199 40l-95 88h-104v128h104l95 88v-304zM255 92v0l-20 16c17 24 27 52 27 84s-10 60 -27 84l20 16c20 -28 33 -63 33 -100s-13 -72 -33 -100zM322 46v0l-21 16c27 36 43 81 43 130s-16 94 -43 130l21 16c30 -41 48 -91 48 -146s-18 -105 -48 -146zM365 369v0l20 15
c39 -54 63 -120 63 -192s-24 -138 -63 -192l-20 15c36 49 58 111 58 177s-22 128 -58 177z" />
    <glyph glyph-name="uniF113" unicode="&#xf113;" horiz-adv-x="288" 
d="M199 39l-95 88h-104v128h104l95 88v-304zM255 91v0l-20 16c17 24 28 52 28 84s-11 60 -28 84l20 16c20 -28 33 -63 33 -100s-13 -72 -33 -100z" />
    <glyph glyph-name="uniF114" unicode="&#xf114;" horiz-adv-x="370" 
d="M199 39l-95 88h-104v128h104l95 88v-304zM255 91v0l-20 16c17 24 28 52 28 84s-11 60 -28 84l20 16c20 -28 33 -63 33 -100s-13 -72 -33 -100zM322 45v0l-21 16c27 36 43 81 43 130s-16 94 -43 130l21 16c30 -41 48 -91 48 -146s-18 -105 -48 -146z" />
    <glyph glyph-name="uniF115" unicode="&#xf115;" horiz-adv-x="342" 
d="M199 40l-95 88h-104v128h104l95 87v-303zM262 250h-35l40 -57l-42 -61h35l23 38l25 -38h34l-41 61l40 57l-33 1l-23 -35zM244 242h13l28 -43l27 42h12l-34 -48l35 -52h-12l-30 45l-28 -45h-12l35 52zM236 246h24l25 -38l25 38l22 -1l-37 -52l39 -56h-24l-27 41l-26 -41
h-23l38 56z" />
  </font>
</defs>
</svg>
