<?xml version="1.0" encoding="UTF-8" standalone="no"?>
<svg width="512px" height="512px" viewBox="0 0 512 512" version="1.1" xmlns="http://www.w3.org/2000/svg" xmlns:xlink="http://www.w3.org/1999/xlink" xmlns:sketch="http://www.bohemiancoding.com/sketch/ns">
    <!-- Generator: Sketch 3.0.4 (8053) - http://www.bohemiancoding.com/sketch -->
    <title>captions</title>
    <desc>Created with Sketch.</desc>
    <defs></defs>
    <g id="Page-1" stroke="none" stroke-width="1" fill="none" fill-rule="evenodd" sketch:type="MSPage">
        <g id="captions" sketch:type="MSArtboardGroup" fill="#231F20">
            <g id="fi-closed-caption" sketch:type="MSLayerGroup" transform="translate(0.000000, 43.000000)">
                <path d="M496.774328,48.0240364 L258.518567,0.129545455 C256.325373,-0.322072727 254.040478,-0.322072727 251.832,0.129545455 L13.5915224,48.0240364 C5.75104478,49.6161818 0.111402985,56.4516909 0.111402985,64.3741455 L0.111402985,205.057036 L0.111402985,214.303727 L0.111402985,354.986618 C0.111402985,362.916727 5.75104478,369.744582 13.5915224,371.329073 L251.832,419.2006 C254.040478,419.675182 256.325373,419.675182 258.518567,419.2006 L496.774328,371.329073 C504.607164,369.744582 510.254448,362.916727 510.254448,354.986618 L510.254448,214.303727 L510.254448,205.057036 L510.254448,64.3741455 C510.254448,56.4516909 504.607164,49.6161818 496.774328,48.0240364 L496.774328,48.0240364 Z M221.883821,271.774055 C205.515104,307.903509 179.831045,326.182564 145.534687,326.182564 C88.2747463,326.182564 49.8212537,279.359709 49.8212537,209.688036 C49.8212537,139.978091 88.2823881,93.1475818 145.534687,93.1475818 C179.632358,93.1475818 205.163582,110.477473 221.463522,144.655018 C222.923104,147.686218 223.068299,151.192 221.883821,154.338018 C220.72991,157.529964 218.315104,160.078927 215.204896,161.449091 L187.53397,173.818836 C181.214209,176.635709 173.664119,173.864764 170.790806,167.534455 C166.664239,158.563327 158.930746,147.816345 145.534687,147.816345 C124.336358,147.816345 109.549493,173.260055 109.549493,209.695691 C109.549493,246.116018 124.336358,271.544418 145.534687,271.544418 C160.711284,271.544418 168.016836,256.595091 170.469851,250.172927 C171.684896,246.950364 174.176119,244.324855 177.37803,243.023582 C180.595224,241.630455 184.209791,241.699345 187.381134,243.061855 L215.373015,255.125418 C218.483224,256.442 220.913313,258.952691 222.136,262.106364 C223.366328,265.229418 223.266985,268.696927 221.883821,271.774055 L221.883821,271.774055 Z M459.413612,271.774055 C443.044896,307.903509 417.376119,326.182564 383.064478,326.182564 C325.804537,326.182564 287.351045,279.359709 287.351045,209.688036 C287.351045,139.978091 325.812179,93.1475818 383.064478,93.1475818 C417.162149,93.1475818 442.693373,110.477473 458.993313,144.655018 C460.452896,147.686218 460.590448,151.192 459.413612,154.338018 C458.259701,157.529964 455.844896,160.078927 452.734687,161.449091 L425.063761,173.818836 C418.744,176.635709 411.201552,173.864764 408.320597,167.534455 C404.19403,158.563327 396.460537,147.816345 383.064478,147.816345 C361.866149,147.816345 347.071642,173.260055 347.071642,209.695691 C347.071642,246.116018 361.858507,271.544418 383.064478,271.544418 C398.241075,271.544418 405.546627,256.595091 407.999642,250.172927 C409.214687,246.950364 411.713552,244.324855 414.907821,243.023582 C418.125015,241.630455 421.739582,241.699345 424.910925,243.061855 L452.902806,255.125418 C456.013015,256.442 458.450746,258.952691 459.665791,262.106364 C460.903761,265.229418 460.804418,268.696927 459.413612,271.774055 L459.413612,271.774055 Z" id="Shape" sketch:type="MSShapeGroup"></path>
            </g>
        </g>
    </g>
</svg>