<?xml version="1.0" encoding="UTF-8" standalone="no"?>
<svg width="512px" height="512px" viewBox="0 0 512 512" version="1.1" xmlns="http://www.w3.org/2000/svg" xmlns:xlink="http://www.w3.org/1999/xlink" xmlns:sketch="http://www.bohemiancoding.com/sketch/ns">
    <!-- Generator: Sketch 3.0.3 (7892) - http://www.bohemiancoding.com/sketch -->
    <title>closed-captions-alt</title>
    <desc>Created with Sketch.</desc>
    <defs></defs>
    <g id="Page-1" stroke="none" stroke-width="1" fill="none" fill-rule="evenodd" sketch:type="MSPage">
        <g id="closed-captions-alt" sketch:type="MSArtboardGroup" fill="#231F20">
            <g sketch:type="MSLayerGroup" transform="translate(6.000000, 51.000000)" id="Shape">
                <path d="M487.130299,47.0615273 L253.52797,0.190909091 C251.377612,-0.251054545 249.137343,-0.251054545 246.972,0.190909091 L13.3846567,47.0615273 C5.69731343,48.6196364 0.167820896,55.3090182 0.167820896,63.0621091 L0.167820896,200.737527 L0.167820896,209.786545 L0.167820896,347.461964 C0.167820896,355.222545 5.69731343,361.904436 13.3846567,363.455055 L246.972,410.3032 C249.137343,410.767636 251.377612,410.767636 253.52797,410.3032 L487.130299,363.455055 C494.810149,361.904436 500.347134,355.222545 500.347134,347.461964 L500.347134,209.786545 L500.347134,200.737527 L500.347134,63.0621091 C500.347134,55.3090182 494.810149,48.6196364 487.130299,47.0615273 L487.130299,47.0615273 Z M217.608746,266.028291 C201.559731,301.385382 176.377313,319.273673 142.750806,319.273673 C86.6092239,319.273673 48.9067761,273.451782 48.9067761,205.269527 C48.9067761,137.049818 86.6167164,91.2204364 142.750806,91.2204364 C176.182507,91.2204364 201.215075,108.179855 217.196657,141.626764 C218.627731,144.593164 218.77009,148.024 217.608746,151.102764 C216.477373,154.226473 214.109731,156.720945 211.060269,158.061818 L183.929791,170.167127 C177.733463,172.923782 170.330836,170.212073 167.513642,164.017091 C163.467672,155.237745 155.885224,144.720509 142.750806,144.720509 C121.966507,144.720509 107.468448,169.620291 107.468448,205.277018 C107.468448,240.918764 121.966507,265.803564 142.750806,265.803564 C157.630985,265.803564 164.793851,251.173818 167.198955,244.888945 C168.390269,241.735273 170.832836,239.165891 173.972209,237.892436 C177.126567,236.529091 180.670537,236.596509 183.77994,237.929891 L211.225104,249.735564 C214.274567,251.024 216.657194,253.481018 217.856,256.567273 C219.062299,259.623564 218.964896,263.016945 217.608746,266.028291 L217.608746,266.028291 Z M450.499284,266.028291 C434.450269,301.385382 409.282836,319.273673 375.641343,319.273673 C319.499761,319.273673 281.797313,273.451782 281.797313,205.269527 C281.797313,137.049818 319.507254,91.2204364 375.641343,91.2204364 C409.073045,91.2204364 434.105612,108.179855 450.087194,141.626764 C451.518269,144.593164 451.653134,148.024 450.499284,151.102764 C449.36791,154.226473 447.000269,156.720945 443.950806,158.061818 L416.820328,170.167127 C410.624,172.923782 403.228866,170.212073 400.404179,164.017091 C396.358209,155.237745 388.775761,144.720509 375.641343,144.720509 C354.857045,144.720509 340.351493,169.620291 340.351493,205.277018 C340.351493,240.918764 354.849552,265.803564 375.641343,265.803564 C390.521522,265.803564 397.684388,251.173818 400.089493,244.888945 C401.280806,241.735273 403.730866,239.165891 406.862746,237.892436 C410.017104,236.529091 413.561075,236.596509 416.670478,237.929891 L444.115642,249.735564 C447.165104,251.024 449.555224,253.481018 450.746537,256.567273 C451.960328,259.623564 451.862925,263.016945 450.499284,266.028291 L450.499284,266.028291 Z" sketch:type="MSShapeGroup"></path>
            </g>
        </g>
    </g>
</svg>