<?xml version="1.0" encoding="UTF-8" standalone="no"?>
<svg width="512px" height="512px" viewBox="0 0 512 512" version="1.1" xmlns="http://www.w3.org/2000/svg" xmlns:xlink="http://www.w3.org/1999/xlink" xmlns:sketch="http://www.bohemiancoding.com/sketch/ns">
    <!-- Generator: Sketch 3.0.3 (7892) - http://www.bohemiancoding.com/sketch -->
    <title>closed-captions</title>
    <desc>Created with Sketch.</desc>
    <defs></defs>
    <g id="Page-1" stroke="none" stroke-width="1" fill="none" fill-rule="evenodd" sketch:type="MSPage">
        <g id="closed-captions" sketch:type="MSArtboardGroup" fill="#000000">
            <g id="closed-captioning" sketch:type="MSLayerGroup" transform="translate(0.000000, 64.000000)">
                <g id="Group" sketch:type="MSShapeGroup">
                    <path d="M0,0 L0,384 L512,384 L512,0 L0,0 L0,0 Z M464,191.825 C464.045,218.549 462.453,238.968 460.203,272.048 C457.953,305.128 441,328.5 401.097,332.168 C361.201,335.835 305.369,336.12 256,336 C207,336.12 150.802,335.835 110.906,332.168 C71.003,328.5 54.051,305.128 51.801,272.048 C49.551,238.968 47.96,218.549 48.005,191.825 C47.96,165.1 48.1,147.701 51.803,111.601 C55.506,75.501 74.813,55.334 110.909,51.667 C147.005,48 201.842,48 248.704,48 L256,48 L263.302,48 C310.164,48 365,48 401.097,51.667 C437.194,55.334 456.5,75.5 460.203,111.601 C463.906,147.702 464.045,165.1 464,191.825 L464,191.825 Z" id="Shape"></path>
                    <g transform="translate(87.000000, 85.000000)" id="Shape">
                        <path d="M285,134.846 L285,135.612 C285,154.251 273.419,165.178 257.997,165.178 C242.579,165.178 232.189,152.869 230.713,135.612 C230.713,135.612 229.378,126.534 229.378,108.314 C229.378,90.094 230.924,78.555 230.924,78.555 C233.635,59.082 243.112,48.989 258.531,48.989 C273.898,48.989 286.115,62.251 286.115,82.377 C286.138,82.463 286.125,83.001 286.125,83.001 L337.666,83.001 C337.666,58.001 331.357,35.445 318.746,21.255 C306.129,7.072 287.343,-0.018 262.377,-0.018 C249.894,-0.018 238.447,1.636 228.047,4.924 C217.643,8.219 208.671,13.986 201.131,22.215 C193.586,30.449 187.734,41.469 183.576,55.274 C179.414,69.083 177.334,86.498 177.334,107.521 C177.334,128.041 179.022,145.205 182.406,159.009 C185.783,172.82 190.794,183.839 197.424,192.068 C204.056,200.302 212.377,206.003 222.391,209.168 C232.401,212.331 244.17,213.916 257.695,213.916 C286.299,213.916 306.784,206.658 319.138,192.598 C331.486,178.537 337.666,158 337.666,131 L285,131 L285,134.846 L285,134.846 Z"></path>
                        <path d="M108,134.846 L108,135.612 C108,154.251 96.419,165.178 80.997,165.178 C65.579,165.178 55.189,152.869 53.713,135.612 C53.713,135.612 52.378,126.534 52.378,108.314 C52.378,90.094 53.924,78.555 53.924,78.555 C56.635,59.082 66.112,48.989 81.531,48.989 C96.898,48.989 109.115,62.251 109.115,82.377 C109.138,82.463 109.125,83.001 109.125,83.001 L160.666,83.001 C160.666,58.001 154.357,35.445 141.746,21.255 C129.129,7.072 110.343,-0.018 85.377,-0.018 C72.894,-0.018 61.447,1.636 51.047,4.924 C40.643,8.219 31.671,13.986 24.131,22.215 C16.586,30.449 10.734,41.469 6.576,55.274 C2.414,69.083 0.334,86.498 0.334,107.521 C0.334,128.041 2.022,145.205 5.406,159.009 C8.783,172.82 13.794,183.839 20.424,192.068 C27.056,200.302 35.377,206.003 45.391,209.168 C55.401,212.331 67.17,213.916 80.695,213.916 C109.299,213.916 129.784,206.658 142.138,192.598 C154.486,178.537 160.666,158 160.666,131 L108,131 L108,134.846 L108,134.846 Z"></path>
                    </g>
                </g>
            </g>
        </g>
    </g>
</svg>