<?xml version="1.0" encoding="UTF-8" standalone="no"?>
<svg width="512px" height="512px" viewBox="0 0 512 512" version="1.1" xmlns="http://www.w3.org/2000/svg" xmlns:xlink="http://www.w3.org/1999/xlink" xmlns:sketch="http://www.bohemiancoding.com/sketch/ns">
    <!-- Generator: Sketch 3.0.4 (8053) - http://www.bohemiancoding.com/sketch -->
    <title>fast-forward</title>
    <desc>Created with Sketch.</desc>
    <defs></defs>
    <g id="Page-1" stroke="none" stroke-width="1" fill="none" fill-rule="evenodd" sketch:type="MSPage">
        <g id="fast-forward" sketch:type="MSArtboardGroup" fill="#000000">
            <g id="fi-fast-forward" sketch:type="MSLayerGroup" transform="translate(36.000000, 112.000000)">
                <path d="M443.986411,147.426894 C443.986411,143.11034 441.396603,139.41483 437.689863,137.773064 L437.794192,137.588596 L208.332274,4.8453617 C206.429808,2.9576383 203.815452,1.78934043 200.924932,1.78934043 C195.20526,1.78934043 190.577973,6.358 190.412274,12.0519149 L190.381589,12.0519149 L190.381589,105.817043 L15.8334247,4.8453617 C13.9309589,2.9576383 11.3166027,1.78934043 8.42608219,1.78934043 C2.70641096,1.78934043 -1.9270137,6.358 -2.08657534,12.0519149 L-2.11726027,12.0519149 L-2.11726027,282.795723 C-2.11726027,288.631064 2.60821918,293.359596 8.42608219,293.359596 C11.3902466,293.359596 14.0598356,292.129809 15.9745753,290.156 L190.387726,189.264255 L190.387726,282.801872 C190.387726,288.637213 195.107068,293.365745 200.931068,293.365745 C203.895233,293.365745 206.564822,292.135957 208.479562,290.162149 L438.892712,156.87166 L438.702466,156.539617 C441.844603,154.707234 443.986411,151.331468 443.986411,147.426894 L443.986411,147.426894 Z" id="Shape" sketch:type="MSShapeGroup"></path>
            </g>
        </g>
    </g>
</svg>