<?xml version="1.0" encoding="UTF-8" standalone="no"?>
<svg width="512px" height="512px" viewBox="0 0 512 512" version="1.1" xmlns="http://www.w3.org/2000/svg" xmlns:xlink="http://www.w3.org/1999/xlink" xmlns:sketch="http://www.bohemiancoding.com/sketch/ns">
    <!-- Generator: Sketch 3.0.3 (7892) - http://www.bohemiancoding.com/sketch -->
    <title>fullscreen-enter</title>
    <desc>Created with Sketch.</desc>
    <defs></defs>
    <g id="Page-1" stroke="none" stroke-width="1" fill="none" fill-rule="evenodd" sketch:type="MSPage">
        <g id="fullscreen-enter" sketch:type="MSArtboardGroup" fill="#000000">
            <g id="arrow-expand" sketch:type="MSLayerGroup" transform="translate(96.000000, 96.000000)">
                <g id="Group" sketch:type="MSShapeGroup">
                    <path d="M178,113.7 L241.9,49.9 L192,0 L320,0 L320,128 L270.1,78.1 L206.3,142 L178,113.7 Z" id="Shape"></path>
                    <path d="M178,206.3 L241.9,270.1 L192,320 L320,320 L320,192 L270.1,241.9 L206.3,178 L178,206.3 Z" id="Shape"></path>
                    <path d="M142,206.3 L78.1,270.1 L128,320 L0,320 L0,192 L49.9,241.9 L113.7,178 L142,206.3 Z" id="Shape"></path>
                    <path d="M142,113.7 L78.1,49.9 L128,0 L0,0 L0,128 L49.9,78.1 L113.7,142 L142,113.7 Z" id="Shape"></path>
                </g>
            </g>
        </g>
    </g>
</svg>