<?xml version="1.0" encoding="UTF-8" standalone="no"?>
<svg width="512px" height="512px" viewBox="0 0 512 512" version="1.1" xmlns="http://www.w3.org/2000/svg" xmlns:xlink="http://www.w3.org/1999/xlink" xmlns:sketch="http://www.bohemiancoding.com/sketch/ns">
    <!-- Generator: Sketch 3.0.3 (7892) - http://www.bohemiancoding.com/sketch -->
    <title>fullscreen-exit</title>
    <desc>Created with Sketch.</desc>
    <defs></defs>
    <g id="Page-1" stroke="none" stroke-width="1" fill="none" fill-rule="evenodd" sketch:type="MSPage">
        <g id="fullscreen-exit" sketch:type="MSArtboardGroup" fill="#000000">
            <g id="arrow-shrink" sketch:type="MSLayerGroup" transform="translate(64.000000, 64.000000)">
                <g id="Group" sketch:type="MSShapeGroup">
                    <path d="M384,28.3 L302.1,110.1 L352,160 L224,160 L224,32 L273.9,81.9 L355.7,0 L384,28.3 Z" id="Shape"></path>
                    <path d="M384,355.7 L302.1,273.9 L352,224 L224,224 L224,352 L273.9,302.1 L355.7,384 L384,355.7 Z" id="Shape"></path>
                    <path d="M0,355.7 L81.9,273.9 L32,224 L160,224 L160,352 L110.1,302.1 L28.3,384 L0,355.7 Z" id="Shape"></path>
                    <path d="M0,28.3 L81.9,110.1 L32,160 L160,160 L160,32 L110.1,81.9 L28.3,0 L0,28.3 Z" id="Shape"></path>
                </g>
            </g>
        </g>
    </g>
</svg>