<?xml version="1.0" encoding="UTF-8" standalone="no"?>
<svg width="512px" height="512px" viewBox="0 0 512 512" version="1.1" xmlns="http://www.w3.org/2000/svg" xmlns:xlink="http://www.w3.org/1999/xlink" xmlns:sketch="http://www.bohemiancoding.com/sketch/ns">
    <!-- Generator: Sketch 3.0.4 (8053) - http://www.bohemiancoding.com/sketch -->
    <title>fullscreen-enter</title>
    <desc>Created with Sketch.</desc>
    <defs></defs>
    <g id="Page-1" stroke="none" stroke-width="1" fill="none" fill-rule="evenodd" sketch:type="MSPage">
        <g id="fullscreen-enter" sketch:type="MSArtboardGroup" fill="#000000">
            <g id="fi-arrows-out" sketch:type="MSLayerGroup">
                <g id="Group" sketch:type="MSShapeGroup">
                    <path d="M24.12544,357.65248 L0.11264,502.41024 C-0.32768,505.03168 0.53248,507.70432 2.41152,509.58336 L2.42176,509.59872 C4.31616,511.48288 6.99392,512.33792 9.62048,511.88736 L153.98912,487.49056 C157.0304,486.97856 159.52384,484.80256 160.4608,481.85856 C161.408,478.92992 160.61952,475.70432 158.43328,473.5232 L130.20672,445.29664 L205.99296,369.5104 C209.21856,366.28992 209.21856,361.07776 205.99296,357.85216 L153.76896,305.62304 C150.54336,302.40256 145.3312,302.40256 142.1056,305.62304 L66.32448,381.40416 L38.08768,353.16736 C35.91168,350.99136 32.68608,350.21312 29.74208,351.15008 C26.79808,352.09216 24.63232,354.60096 24.12544,357.65248 L24.12544,357.65248 Z" id="Shape"></path>
                    <path d="M487.87456,154.34752 L511.88736,9.58976 C512.32256,6.96832 511.4624,4.29568 509.58848,2.42176 L509.57824,2.4064 C507.68384,0.52736 505.00608,-0.32768 502.37952,0.11776 L358.01088,24.51456 C354.9696,25.02656 352.47616,27.20256 351.53408,30.14656 C350.58688,33.0752 351.37536,36.3008 353.5616,38.48192 L381.78816,66.70848 L306.00192,142.4896 C302.78144,145.71008 302.78144,150.92736 306.00192,154.15296 L358.22592,206.38208 C361.45152,209.60256 366.66368,209.60256 369.88928,206.38208 L445.67552,130.59584 L473.91232,158.83264 C476.08832,161.00864 479.31904,161.792 482.25792,160.84992 C485.20192,159.90784 487.3728,157.39904 487.87456,154.34752 L487.87456,154.34752 Z" id="Shape"></path>
                    <path d="M357.65248,487.87456 L502.4,511.88736 C505.02144,512.32768 507.6992,511.46752 509.57312,509.58848 L509.58336,509.57312 C511.46752,507.67872 512.32256,505.00608 511.87712,502.3744 L487.48032,358.01088 C486.96832,354.9696 484.79232,352.47616 481.84832,351.53408 C478.91968,350.58688 475.69408,351.37536 473.51296,353.5616 L445.2864,381.78816 L369.50528,305.9968 C366.28992,302.78144 361.07264,302.78144 357.84704,306.00192 L305.61792,358.23104 C302.39744,361.45152 302.39744,366.6688 305.61792,369.88928 L381.40416,445.67552 L353.16736,473.91232 C350.99136,476.08832 350.21312,479.31392 351.1552,482.25792 C352.09216,485.20192 354.60096,487.3728 357.65248,487.87456 L357.65248,487.87456 Z" id="Shape"></path>
                    <path d="M154.34752,24.12544 L9.59488,0.11264 C6.96832,-0.32768 4.3008,0.53248 2.42176,2.41152 L2.4064,2.42688 C0.52736,4.32128 -0.32768,6.99392 0.11776,9.6256 L24.51968,153.99424 C25.03168,157.0304 27.20768,159.52896 30.14656,160.46592 C33.08032,161.41824 36.3008,160.62976 38.48704,158.44352 L66.7136,130.21696 L142.4896,205.99808 C145.7152,209.22368 150.92736,209.22368 154.15296,206.0032 L206.38208,153.77408 C209.60768,150.54848 209.60768,145.33632 206.38208,142.11072 L130.59584,66.32448 L158.83264,38.08768 C161.00352,35.91168 161.78688,32.68096 160.84992,29.74208 C159.90784,26.79808 157.39904,24.6272 154.34752,24.12544 L154.34752,24.12544 Z" id="Shape"></path>
                </g>
            </g>
        </g>
    </g>
</svg>