<?xml version="1.0" encoding="UTF-8" standalone="no"?>
<svg width="512px" height="512px" viewBox="0 0 512 512" version="1.1" xmlns="http://www.w3.org/2000/svg" xmlns:xlink="http://www.w3.org/1999/xlink" xmlns:sketch="http://www.bohemiancoding.com/sketch/ns">
    <!-- Generator: Sketch 3.0.4 (8053) - http://www.bohemiancoding.com/sketch -->
    <title>fullscreen-exit</title>
    <desc>Created with Sketch.</desc>
    <defs></defs>
    <g id="Page-1" stroke="none" stroke-width="1" fill="none" fill-rule="evenodd" sketch:type="MSPage">
        <g id="fullscreen-exit" sketch:type="MSArtboardGroup" fill="#000000">
            <g id="fi-arrows-in" sketch:type="MSLayerGroup">
                <g id="Group" sketch:type="MSShapeGroup">
                    <path d="M184.2944,454.86785 L208.3072,310.96337 C208.7424,308.35729 207.88736,305.70031 206.00832,303.83228 L205.99808,303.8221 C204.10368,301.94898 201.42592,301.09895 198.79936,301.54687 L54.4256,325.79563 C51.38432,326.30463 48.89088,328.46788 47.95392,331.39463 C47.00672,334.30611 47.7952,337.51281 49.97632,339.68115 L78.20288,367.74232 L2.42176,443.0845 C-0.80384,446.28611 -0.80384,451.46773 2.42176,454.67443 L54.64576,506.59752 C57.87136,509.79913 63.08352,509.79913 66.30912,506.59752 L142.09536,431.25534 L170.33216,459.32669 C172.50816,461.48994 175.73376,462.26362 178.67776,461.33215 C181.62176,460.40068 183.78752,457.90149 184.2944,454.86785 L184.2944,454.86785 Z" id="Shape"></path>
                    <path d="M327.71072,54.13215 L303.69792,198.04172 C303.26272,200.6478 304.12288,203.29969 305.9968,205.16772 L306.00704,205.18299 C307.90144,207.05102 310.5792,207.90105 313.20576,207.45822 L457.56928,183.19928 C460.61056,182.69028 463.104,180.52703 464.04608,177.60028 C464.99328,174.6888 464.2048,171.4821 462.01856,169.31376 L433.792,141.25259 L509.57824,65.91041 C512.79872,62.7088 512.79872,57.52209 509.57824,54.31539 L457.35424,2.39739 C454.12864,-0.80931 448.91648,-0.80931 445.69088,2.39739 L369.90976,77.74466 L341.67296,49.67331 C339.49696,47.51006 336.26624,46.73129 333.32736,47.66276 C330.38336,48.60441 328.21248,51.09851 327.71072,54.13215 L327.71072,54.13215 Z" id="Shape"></path>
                    <path d="M457.5488,325.79054 L312.80128,301.91844 C310.17984,301.48579 307.50208,302.33582 305.62816,304.20385 L305.6128,304.21912 C303.72864,306.09733 302.8736,308.7594 303.32416,311.37566 L327.72096,454.8933 C328.23296,457.91676 330.40896,460.40068 333.34784,461.32706 C336.27648,462.26871 339.50208,461.48994 341.68832,459.31651 L369.91488,431.25534 L445.70624,506.60261 C448.92672,509.79913 454.13888,509.79913 457.36448,506.59243 L509.5936,454.67443 C512.81408,451.47282 512.81408,446.28611 509.5936,443.07941 L433.80224,367.74232 L462.04416,339.67097 C464.21504,337.50263 464.9984,334.30102 464.06144,331.37427 C463.11424,328.44752 460.60032,326.28936 457.5488,325.79054 L457.5488,325.79054 Z" id="Shape"></path>
                    <path d="M54.4512,183.21455 L199.20384,207.08665 C201.8304,207.52439 204.49792,206.66927 206.37696,204.80124 L206.3872,204.78597 C208.27136,202.90267 209.1264,200.24569 208.68096,197.62943 L184.28416,54.1067 C183.77216,51.08833 181.59616,48.60441 178.65728,47.67294 C175.72352,46.7262 172.50304,47.51006 170.3168,49.68349 L142.09024,77.74466 L66.30912,2.40757 C63.08352,-0.79913 57.86624,-0.79913 54.64576,2.40248 L2.41664,54.32557 C-0.80896,57.53227 -0.80896,62.71389 2.41664,65.92059 L78.19776,141.26277 L49.96096,169.33412 C47.79008,171.49737 47.00672,174.70916 47.94368,177.63082 C48.89088,180.55757 51.4048,182.71573 54.4512,183.21455 L54.4512,183.21455 Z" id="Shape"></path>
                </g>
            </g>
        </g>
    </g>
</svg>