<?xml version="1.0" encoding="UTF-8" standalone="no"?>
<svg width="512px" height="512px" viewBox="0 0 512 512" version="1.1" xmlns="http://www.w3.org/2000/svg" xmlns:xlink="http://www.w3.org/1999/xlink" xmlns:sketch="http://www.bohemiancoding.com/sketch/ns">
    <!-- Generator: Sketch 3.0.3 (7892) - http://www.bohemiancoding.com/sketch -->
    <title>gear</title>
    <desc>Created with Sketch.</desc>
    <defs></defs>
    <g id="Page-1" stroke="none" stroke-width="1" fill="none" fill-rule="evenodd" sketch:type="MSPage">
        <g id="gear" sketch:type="MSArtboardGroup" fill="#000000">
            <g id="gear-b" sketch:type="MSLayerGroup" transform="translate(64.000000, 64.000000)">
                <path d="M384,230.4 L384,153.6 L341.2,153.6 C337.8,139.2 332.3,125.6 325.1,113.1 L354.9,83.4 L300.6,29.1 L271.5,58.2 C258.9,50.5 245.1,44.7 230.4,40.9 L230.4,-2.84217094e-14 L153.6,-2.84217094e-14 L153.6,40.9 C138.9,44.7 125.1,50.6 112.5,58.2 L83.4,29.1 L29.1,83.4 L58.9,113.1 C51.7,125.6 46.3,139.2 42.8,153.6 L0,153.6 L0,230.4 L44.1,230.4 C47.9,244.1 53.6,257 60.8,269 L29.1,300.7 L83.4,355 L115.7,322.7 C127.4,329.5 140.2,334.6 153.6,338.1 L153.6,384.1 L230.4,384.1 L230.4,338.1 C243.9,334.6 256.6,329.5 268.3,322.7 L300.6,355 L354.9,300.7 L323.3,269 C330.5,257.1 336.2,244.2 340,230.4 L384,230.4 L384,230.4 Z M192,245.8 C162.3,245.8 138.3,221.7 138.3,192 C138.3,162.3 162.3,138.2 192,138.2 C221.7,138.2 245.8,162.3 245.8,192 C245.8,221.7 221.7,245.8 192,245.8 L192,245.8 Z" id="Shape" sketch:type="MSShapeGroup"></path>
            </g>
        </g>
    </g>
</svg>