<?xml version="1.0" encoding="UTF-8" standalone="no"?>
<svg width="512px" height="512px" viewBox="0 0 512 512" version="1.1" xmlns="http://www.w3.org/2000/svg" xmlns:xlink="http://www.w3.org/1999/xlink" xmlns:sketch="http://www.bohemiancoding.com/sketch/ns">
    <!-- Generator: Sketch 3.0.4 (8053) - http://www.bohemiancoding.com/sketch -->
    <title>gear</title>
    <desc>Created with Sketch.</desc>
    <defs></defs>
    <g id="Page-1" stroke="none" stroke-width="1" fill="none" fill-rule="evenodd" sketch:type="MSPage">
        <g id="gear" sketch:type="MSArtboardGroup" fill="#000000">
            <g id="cog2" sketch:type="MSLayerGroup">
                <path d="M512,304.047 L512,207.953 L438.613,195.722 C435.634,186.656 432.002,177.888 427.766,169.472 L470.993,108.955 L403.045,41.006 L342.632,84.158 C334.177,79.881 325.363,76.214 316.248,73.207 L304.047,0 L207.953,0 L195.752,73.208 C186.637,76.215 177.823,79.882 169.369,84.159 L108.955,41.007 L41.006,108.956 L84.233,169.474 C79.998,177.889 76.366,186.657 73.387,195.723 L0,207.953 L0,304.047 L73.559,316.307 C76.539,325.291 80.164,333.981 84.38,342.322 L41.006,403.046 L108.955,470.994 L169.782,427.547 C178.083,431.722 186.727,435.311 195.664,438.264 L207.953,512 L304.047,512 L316.336,438.263 C325.273,435.31 333.917,431.721 342.219,427.547 L403.045,470.993 L470.993,403.045 L427.621,342.322 C431.837,333.981 435.46,325.291 438.441,316.306 L512,304.047 L512,304.047 Z M256,320 C220.654,320 192,291.347 192,256 C192,220.654 220.654,192 256,192 C291.347,192 320,220.654 320,256 C320,291.347 291.347,320 256,320 L256,320 Z" id="Shape" sketch:type="MSShapeGroup"></path>
            </g>
        </g>
    </g>
</svg>