<?xml version="1.0" encoding="UTF-8" standalone="no"?>
<svg width="512px" height="512px" viewBox="0 0 512 512" version="1.1" xmlns="http://www.w3.org/2000/svg" xmlns:xlink="http://www.w3.org/1999/xlink" xmlns:sketch="http://www.bohemiancoding.com/sketch/ns">
    <!-- Generator: Sketch 3.0.4 (8053) - http://www.bohemiancoding.com/sketch -->
    <title>list</title>
    <desc>Created with Sketch.</desc>
    <defs></defs>
    <g id="Page-1" stroke="none" stroke-width="1" fill="none" fill-rule="evenodd" sketch:type="MSPage">
        <g id="list" sketch:type="MSArtboardGroup" fill="#000000">
            <g id="Group" sketch:type="MSLayerGroup" transform="translate(1.000000, 97.000000)">
                <g id="fi-list-bullet" sketch:type="MSShapeGroup">
                    <g id="Group">
                        <path d="M489.794429,-2.13162821e-14 L123.939714,-2.13162821e-14 C112.916571,-2.13162821e-14 103.984429,9.53125 103.984429,21.29375 L103.984429,40.9375 C103.984429,52.69375 112.916571,62.23125 123.939714,62.23125 L489.794429,62.23125 C500.811714,62.23125 509.749714,52.7 509.749714,40.9375 L509.749714,21.29375 C509.749714,9.53125 500.811714,-2.13162821e-14 489.794429,-2.13162821e-14 L489.794429,-2.13162821e-14 Z" id="Shape"></path>
                        <path d="M31.1880342,62.3 C48.4127098,62.3 62.3760684,48.35367 62.3760684,31.15 C62.3760684,13.94633 48.4127098,0 31.1880342,0 C13.9633585,0 0,13.94633 0,31.15 C0,48.35367 13.9633585,62.3 31.1880342,62.3 Z" id="Oval"></path>
                    </g>
                </g>
                <g id="fi-list-bullet-2" transform="translate(0.000000, 96.000000)" sketch:type="MSShapeGroup">
                    <g id="Group">
                        <path d="M489.794429,-2.13162821e-14 L123.939714,-2.13162821e-14 C112.916571,-2.13162821e-14 103.984429,9.53125 103.984429,21.29375 L103.984429,40.9375 C103.984429,52.69375 112.916571,62.23125 123.939714,62.23125 L489.794429,62.23125 C500.811714,62.23125 509.749714,52.7 509.749714,40.9375 L509.749714,21.29375 C509.749714,9.53125 500.811714,-2.13162821e-14 489.794429,-2.13162821e-14 L489.794429,-2.13162821e-14 Z" id="Shape"></path>
                        <path d="M31.1880342,62.3 C48.4127098,62.3 62.3760684,48.35367 62.3760684,31.15 C62.3760684,13.94633 48.4127098,0 31.1880342,0 C13.9633585,0 0,13.94633 0,31.15 C0,48.35367 13.9633585,62.3 31.1880342,62.3 Z" id="Oval"></path>
                    </g>
                </g>
                <g id="fi-list-bullet-3" transform="translate(0.000000, 192.000000)" sketch:type="MSShapeGroup">
                    <g id="Group">
                        <path d="M488.794429,-2.13162821e-14 L122.939714,-2.13162821e-14 C111.916571,-2.13162821e-14 102.984429,9.53125 102.984429,21.29375 L102.984429,40.9375 C102.984429,52.69375 111.916571,62.23125 122.939714,62.23125 L488.794429,62.23125 C499.811714,62.23125 508.749714,52.7 508.749714,40.9375 L508.749714,21.29375 C508.749714,9.53125 499.811714,-2.13162821e-14 488.794429,-2.13162821e-14 L488.794429,-2.13162821e-14 Z" id="Shape"></path>
                        <ellipse id="Oval" cx="31.1880342" cy="31.15" rx="31.1880342" ry="31.15"></ellipse>
                    </g>
                </g>
                <g id="fi-list-bullet-4" transform="translate(0.000000, 288.000000)" sketch:type="MSShapeGroup">
                    <g id="Group">
                        <path d="M488.794429,-2.13162821e-14 L122.939714,-2.13162821e-14 C111.916571,-2.13162821e-14 102.984429,9.53125 102.984429,21.29375 L102.984429,40.9375 C102.984429,52.69375 111.916571,62.23125 122.939714,62.23125 L488.794429,62.23125 C499.811714,62.23125 508.749714,52.7 508.749714,40.9375 L508.749714,21.29375 C508.749714,9.53125 499.811714,-2.13162821e-14 488.794429,-2.13162821e-14 L488.794429,-2.13162821e-14 Z" id="Shape"></path>
                        <path d="M31.1880342,62.3 C48.4127098,62.3 62.3760684,48.35367 62.3760684,31.15 C62.3760684,13.94633 48.4127098,0 31.1880342,0 C13.9633585,0 0,13.94633 0,31.15 C0,48.35367 13.9633585,62.3 31.1880342,62.3 Z" id="Oval"></path>
                    </g>
                </g>
            </g>
        </g>
    </g>
</svg>