<?xml version="1.0" encoding="UTF-8" standalone="no"?>
<svg width="512px" height="512px" viewBox="0 0 512 512" version="1.1" xmlns="http://www.w3.org/2000/svg" xmlns:xlink="http://www.w3.org/1999/xlink" xmlns:sketch="http://www.bohemiancoding.com/sketch/ns">
    <!-- Generator: Sketch 3.0.3 (7892) - http://www.bohemiancoding.com/sketch -->
    <title>list</title>
    <desc>Created with Sketch.</desc>
    <defs></defs>
    <g id="Page-1" stroke="none" stroke-width="1" fill="none" fill-rule="evenodd" sketch:type="MSPage">
        <g id="list" sketch:type="MSArtboardGroup">
            <g sketch:type="MSLayerGroup" transform="translate(28.000000, 65.000000)" id="Page-1">
                <g sketch:type="MSShapeGroup">
                    <g id="list">
                        <g id="Page-1">
                            <g id="Group">
                                <g id="list">
                                    <g id="lines" transform="translate(97.588542, 0.000000)" fill="#000000">
                                        <path d="M330.770858,152.8 L28.6406006,152.8 C12.8227526,152.8 0,169.870625 0,191 C0,212.129375 12.8227526,229.2 28.6406006,229.2 L330.770858,229.2 C346.588706,229.2 359.411458,212.129375 359.411458,191 C359.411458,169.870625 346.588706,152.8 330.770858,152.8 L330.770858,152.8 L330.770858,152.8 Z" id="Shape"></path>
                                        <path d="M330.770858,0 L28.6406006,0 C12.8227526,0 0,17.070625 0,38.2 C0,59.329375 12.8227526,76.4 28.6406006,76.4 L330.770858,76.4 C346.588706,76.4 359.411458,59.329375 359.411458,38.2 C359.411458,17.070625 346.588706,0 330.770858,0 L330.770858,0 L330.770858,0 Z" id="Shape"></path>
                                        <path d="M330.770858,305.6 L28.6406006,305.6 C12.8227526,305.6 0,322.670625 0,343.8 C0,364.929375 12.8227526,382 28.6406006,382 L330.770858,382 C346.588706,382 359.411458,364.929375 359.411458,343.8 C359.411458,322.670625 346.588706,305.6 330.770858,305.6 L330.770858,305.6 L330.770858,305.6 Z" id="Shape"></path>
                                    </g>
                                    <g id="circles" fill="#010101">
                                        <ellipse id="Oval" cx="38.0165204" cy="38.1329824" rx="38.0165204" ry="38.1329824"></ellipse>
                                        <ellipse id="Oval-2" cx="38.0165204" cy="190.605085" rx="38.0165204" ry="38.1329824"></ellipse>
                                        <ellipse id="Oval-3" cx="38.0165204" cy="343.896931" rx="38.0165204" ry="38.1329824"></ellipse>
                                    </g>
                                </g>
                            </g>
                        </g>
                    </g>
                </g>
            </g>
        </g>
    </g>
</svg>