<?xml version="1.0" encoding="UTF-8" standalone="no"?>
<svg width="560px" height="560px" viewBox="0 0 560 560" version="1.1" xmlns="http://www.w3.org/2000/svg" xmlns:xlink="http://www.w3.org/1999/xlink" xmlns:sketch="http://www.bohemiancoding.com/sketch/ns">
    <!-- Generator: Sketch 3.0.3 (7892) - http://www.bohemiancoding.com/sketch -->
    <title>load-thin</title>
    <desc>Created with Sketch.</desc>
    <defs></defs>
    <g id="Page-1" stroke="none" stroke-width="1" fill="none" fill-rule="evenodd" sketch:type="MSPage">
        <g id="load-thin" sketch:type="MSArtboardGroup" fill="#000000">
            <g id="load-c" sketch:type="MSLayerGroup" transform="translate(56.000000, 56.000000)">
                <path d="M447.8,194.1 C446.4,185.4 444.7,176.8 442.5,168.3 C439.7,157.5 436.1,146.8 431.7,136.5 C422.8,115.3 410.6,95.5 395.8,77.9 C379.8,59 360.5,42.7 339.1,30.2 C318,17.8 295,9 271,4.1 C258.6,1.6 246.1,0.1 233.4,1.40634032e-14 C223.5,-0.1 213.6,0.3 203.8,1.2 C178.3,3.7 153.1,10.8 129.9,21.7 C110,31.1 91.5,43.3 75.1,57.9 C58.7,72.5 44.4,89.5 32.9,108.2 C20.2,129 10.7,151.7 5.5,175.5 C1.3,194.5 -0.7,214.1 0.3,233.6 C1.2,252.5 4.1,271.4 9.8,289.5 C13.4,301 17.7,312.2 23.1,323.1 C28.4,333.8 34.6,344.1 41.5,353.8 C55.3,373.1 72.1,390.2 91.3,404.3 C110.9,418.8 133,430 156.2,437.4 C180.4,445.1 206.1,448.7 231.5,447.8 C256.3,447 280.9,442.2 304.1,433.3 C326.4,424.7 347.3,412.4 365.6,397 C374.8,389.2 383,380.4 390.7,371.1 C398.5,361.7 405.5,351.8 411.3,341.1 C416.3,331.9 420.5,322.3 424.1,312.6 C425.9,307.8 427.6,303 429,298 C430.5,292.7 431.6,287.2 432.6,281.8 C434.1,273.3 434.7,264.5 433.9,255.9 C433.2,259.7 432.6,263.4 431.7,267.1 C430.6,271.4 429.2,275.6 427.6,279.7 C424.4,288.4 420.4,296.8 416.6,305.2 C411.7,315.9 406,326.1 399.8,336 C396.6,341.1 393.3,346.1 389.7,350.9 C386.1,355.7 382,360.3 377.9,364.8 C369.7,373.9 360.8,382 350.9,389.2 C340.8,396.6 330.1,403.1 318.8,408.5 C296.2,419.5 271.5,426.1 246.5,428.3 C220.9,430.5 194.8,428 170.2,420.7 C146.8,413.8 124.6,402.6 105.1,387.9 C86.2,373.6 69.8,356 56.9,336.1 C43.4,315.8 34.1,292.9 29,269 C27.7,262.8 26.7,256.4 26,250.1 C25.4,244.7 24.9,239.2 24.7,233.7 C24.4,222.4 25.1,210.7 26.8,199.5 C30.5,174.9 38.5,151.2 50.9,129.6 C61.9,110.3 76.2,92.9 93,78.2 C109.8,63.4 129,51.5 149.8,43.1 C161.8,38.2 174.4,34.6 187.2,32.2 C193.7,31 200.2,30 206.7,29.5 C209.9,29.2 213,29.2 216.2,28.9 C217.5,28.9 218.8,29 220.1,29 C241.8,28.6 263.6,31.4 284.3,37.9 C306.6,44.9 327.6,56.2 345.8,70.9 C364.9,86.3 380.8,105.3 392.8,126.7 C403,144.9 410.3,164.5 414.7,184.9 C415.7,189.6 416.5,194.3 417.3,199 C418,203.3 420.4,207.3 424.1,209.7 C431.9,214.9 442.8,211.4 446.6,203 C447.9,200.1 448.3,197 447.8,194.1 L447.8,194.1 Z" id="Shape" sketch:type="MSShapeGroup"></path>
            </g>
        </g>
    </g>
</svg>