<?xml version="1.0" encoding="UTF-8" standalone="no"?>
<svg width="512px" height="512px" viewBox="0 0 512 512" version="1.1" xmlns="http://www.w3.org/2000/svg" xmlns:xlink="http://www.w3.org/1999/xlink" xmlns:sketch="http://www.bohemiancoding.com/sketch/ns">
    <!-- Generator: Sketch 3.0.4 (8053) - http://www.bohemiancoding.com/sketch -->
    <title>loop</title>
    <desc>Created with Sketch.</desc>
    <defs></defs>
    <g id="Page-1" stroke="none" stroke-width="1" fill="none" fill-rule="evenodd" sketch:type="MSPage">
        <g id="loop" sketch:type="MSArtboardGroup" fill="#000000">
            <g id="fi-refresh-2" sketch:type="MSLayerGroup" transform="translate(66.000000, 66.000000)">
                <path d="M379.928275,37.5343662 C379.889826,34.5264789 378.165101,31.7380282 375.396754,30.3785915 C372.633899,28.9977465 369.316275,29.2439437 366.784116,30.9940845 L334.135188,53.7994366 L331.56458,55.6030986 C296.383493,21.3923944 248.096696,-8.52651283e-14 194.591783,-8.52651283e-14 C87.2908406,-8.52651283e-14 -5.96855898e-13,85.0664789 -5.96855898e-13,189.614648 C-5.96855898e-13,294.162817 87.2963333,379.229296 194.591783,379.229296 C259.307406,379.229296 319.628826,347.983662 355.935928,295.64 C357.380522,293.541972 357.924304,290.999718 357.429957,288.532394 C356.935609,286.06507 355.469043,283.870704 353.32687,282.463099 L304.644594,249.542254 C299.865899,246.459437 293.422899,247.642254 290.209638,252.282535 C268.689029,283.281972 233.030072,301.789577 194.773043,301.789577 C131.287797,301.789577 79.633942,251.469014 79.633942,189.625352 C79.633942,127.78169 131.287797,77.4611268 194.773043,77.4611268 C221.566696,77.4611268 246.141275,86.5383099 265.706464,101.545634 L260.208217,105.399155 L227.537319,128.199155 C225.038116,129.954648 223.714362,132.962535 224.181246,135.949014 C224.626159,138.935493 226.762841,141.450986 229.717942,142.414366 L369.486551,188.811831 C372.01871,189.673521 374.792551,189.256056 377.000638,187.725352 C379.192246,186.173239 380.45558,183.727324 380.444594,181.136901 L379.928275,37.5343662 L379.928275,37.5343662 Z" id="Shape" sketch:type="MSShapeGroup"></path>
            </g>
        </g>
    </g>
</svg>