<?xml version="1.0" encoding="UTF-8" standalone="no"?>
<svg width="512px" height="512px" viewBox="0 0 512 512" version="1.1" xmlns="http://www.w3.org/2000/svg" xmlns:xlink="http://www.w3.org/1999/xlink" xmlns:sketch="http://www.bohemiancoding.com/sketch/ns">
    <!-- Generator: Sketch 3.0.4 (8053) - http://www.bohemiancoding.com/sketch -->
    <title>next</title>
    <desc>Created with Sketch.</desc>
    <defs></defs>
    <g id="Page-1" stroke="none" stroke-width="1" fill="none" fill-rule="evenodd" sketch:type="MSPage">
        <g id="next" sketch:type="MSArtboardGroup" fill="#000000">
            <g id="fi-next-3" sketch:type="MSLayerGroup" transform="translate(32.000000, 79.000000)">
                <path d="M459.61109,338.0169 L459.61109,15.1689 C459.61109,15.1571 459.617,15.1512 459.617,15.1394 C459.617,15.1276 459.61109,15.1158 459.61109,15.1099 L459.61109,13.7234 L459.469244,13.7234 C458.742282,6.136 452.412397,0.177 444.616769,0.177 C444.439462,0.177 444.273974,0.2242 444.102577,0.2301 L417.098615,0.2301 C416.678987,0.1947 416.271179,0.1062 415.839731,0.1062 C407.565372,0.1062 400.84541,6.8086 400.84541,15.0745 C400.84541,15.7648 400.957705,16.4315 401.052269,17.0982 L401.052269,153.6301 L203.99841,40.0551 C202.166231,38.2438 199.648462,37.1228 196.864731,37.1228 C191.356372,37.1228 186.900038,41.5065 186.740462,46.9699 L186.705,46.9699 L186.705,136.939 L18.6054872,40.0492 C16.7733077,38.2379 14.2555385,37.1169 11.4718077,37.1169 C5.96344872,37.1169 1.50120513,41.5006 1.34753846,46.964 L1.31798718,46.964 L1.31798718,306.7469 C1.31798718,312.346 5.86888462,316.8831 11.4718077,316.8831 C14.3264615,316.8831 16.8974231,315.7031 18.7414231,313.8092 L186.705,217.002 L186.705,306.7528 C186.705,312.3519 191.249987,316.889 196.858821,316.889 C199.713474,316.889 202.284436,315.709 204.128436,313.8151 L401.052269,200.3168 L401.052269,338.2706 L401.129103,338.2706 C401.117282,338.5007 401.058179,338.7131 401.058179,338.9432 C401.058179,347.1973 407.76041,353.8879 416.022949,353.9056 L416.022949,353.9056 L444.699513,353.9056 L444.699513,353.764 C452.979782,353.764 459.693833,347.0616 459.693833,338.7957 C459.687923,338.5243 459.62291,338.2765 459.61109,338.0169 L459.61109,338.0169 Z" id="Shape" sketch:type="MSShapeGroup"></path>
            </g>
        </g>
    </g>
</svg>