<?xml version="1.0" encoding="UTF-8" standalone="no"?>
<svg width="512px" height="512px" viewBox="0 0 512 512" version="1.1" xmlns="http://www.w3.org/2000/svg" xmlns:xlink="http://www.w3.org/1999/xlink" xmlns:sketch="http://www.bohemiancoding.com/sketch/ns">
    <!-- Generator: Sketch 3.0.3 (7892) - http://www.bohemiancoding.com/sketch -->
    <title>pause</title>
    <desc>Created with Sketch.</desc>
    <defs></defs>
    <g id="Page-1" stroke="none" stroke-width="1" fill="none" fill-rule="evenodd" sketch:type="MSPage">
        <g id="pause" sketch:type="MSArtboardGroup" fill="#000000">
            <g sketch:type="MSLayerGroup" transform="translate(128.000000, 64.000000)" id="Group">
                <g sketch:type="MSShapeGroup">
                    <path d="M96,371.8 L96,12.1 C96,5.4 90.6,0 83.8,0 L12.2,0 C5.4,0 0,5.4 0,12.1 L0,371.8 C0,378.5 5.4,384 12.2,384 L83.8,384 C90.6,384 96,378.6 96,371.8 L96,371.8 Z" id="Shape"></path>
                    <path d="M243.8,0 L172.2,0 C165.5,0 160,5.4 160,12.1 L160,371.8 C160,378.5 165.4,384 172.2,384 L243.8,384 C250.5,384 256,378.6 256,371.8 L256,12.1 C256,5.4 250.6,0 243.8,0 L243.8,0 Z" id="Shape"></path>
                </g>
            </g>
        </g>
    </g>
</svg>