<?xml version="1.0" encoding="UTF-8" standalone="no"?>
<svg width="512px" height="512px" viewBox="0 0 512 512" version="1.1" xmlns="http://www.w3.org/2000/svg" xmlns:xlink="http://www.w3.org/1999/xlink" xmlns:sketch="http://www.bohemiancoding.com/sketch/ns">
    <!-- Generator: Sketch 3.0.4 (8053) - http://www.bohemiancoding.com/sketch -->
    <title>pause</title>
    <desc>Created with Sketch.</desc>
    <defs></defs>
    <g id="Page-1" stroke="none" stroke-width="1" fill="none" fill-rule="evenodd" sketch:type="MSPage">
        <g id="pause" sketch:type="MSArtboardGroup" fill="#000000">
            <g id="fi-pause" sketch:type="MSLayerGroup" transform="translate(115.000000, 63.000000)">
                <g id="Group" sketch:type="MSShapeGroup">
                    <path d="M80.5971136,-0.263766667 C79.9732273,-0.263766667 79.3750682,-0.160833333 78.7769091,-0.0772 L78.7769091,-0.263766667 L12.2976364,-0.263766667 L12.2912045,-0.263766667 C4.61161364,-0.263766667 -1.62081818,5.9637 -1.62081818,13.6515333 L-1.62081818,13.6837 L-1.62725,13.6837 L-1.62725,372.297 L-1.62081818,372.297 C-1.62081818,372.3163 -1.62725,372.3356 -1.62725,372.3549 C-1.62725,380.0363 4.60518182,386.263767 12.2847727,386.263767 L12.2847727,386.263767 L80.5906818,386.263767 C88.2702727,386.263767 94.4962727,380.0363 94.4962727,372.3549 C94.4962727,372.3356 94.4898409,372.3163 94.4898409,372.297 L94.4962727,372.297 L94.4962727,13.6837 C94.4962727,13.6708333 94.5027045,13.6579667 94.5027045,13.6515333 C94.5027045,5.9637 88.2702727,-0.263766667 80.5971136,-0.263766667 L80.5971136,-0.263766667 Z" id="Shape"></path>
                    <path d="M284.614386,372.297 L284.614386,13.6837 C284.614386,13.6708333 284.620818,13.6579667 284.620818,13.6515333 C284.620818,5.9637 278.388386,-0.263766667 270.715227,-0.263766667 C270.091341,-0.263766667 269.493182,-0.160833333 268.895023,-0.0772 L268.895023,-0.263766667 L202.409318,-0.263766667 C194.729727,-0.263766667 188.497295,5.9637 188.497295,13.6515333 L188.497295,13.6837 L188.490864,13.6837 L188.490864,372.297 L188.497295,372.297 C188.497295,372.3163 188.490864,372.3356 188.490864,372.3549 C188.490864,380.0363 194.723295,386.263767 202.402886,386.263767 L202.402886,386.263767 L270.695932,386.263767 C278.375523,386.263767 284.601523,380.0363 284.601523,372.3549 C284.614386,372.3356 284.607955,372.3163 284.614386,372.297 L284.614386,372.297 L284.614386,372.297 Z" id="Shape"></path>
                </g>
            </g>
        </g>
    </g>
</svg>