<?xml version="1.0" encoding="UTF-8" standalone="no"?>
<svg width="512px" height="512px" viewBox="0 0 512 512" version="1.1" xmlns="http://www.w3.org/2000/svg" xmlns:xlink="http://www.w3.org/1999/xlink" xmlns:sketch="http://www.bohemiancoding.com/sketch/ns">
    <!-- Generator: Sketch 3.0.4 (8053) - http://www.bohemiancoding.com/sketch -->
    <title>play</title>
    <desc>Created with Sketch.</desc>
    <defs></defs>
    <g id="Page-1" stroke="none" stroke-width="1" fill="none" fill-rule="evenodd" sketch:type="MSPage">
        <g id="play" sketch:type="MSArtboardGroup" fill="#000000">
            <g id="fi-play" sketch:type="MSLayerGroup" transform="translate(91.000000, 68.000000)">
                <path d="M315.894667,181.5 C315.894667,176.540952 313.120889,172.278629 309.065556,170.042081 L20.7214074,3.48362903 C18.5971852,2.00235484 16.0223704,1.11827419 13.2368889,1.11827419 C5.98644444,1.11827419 0.105333333,6.99653226 0.105333333,14.2506774 C0.105333333,14.7600484 0.198962963,15.2401452 0.257481481,15.7319516 L0.105333333,15.7319516 L0.105333333,350.224742 L0.257481481,350.224742 C1.00066667,356.776306 6.49555556,361.875871 13.2368889,361.875871 C15.6302963,361.875871 17.8422963,361.190855 19.7734074,360.072581 L19.8904444,360.2775 L309.416667,193.034032 L309.29963,192.829113 C313.226222,190.557435 315.894667,186.359516 315.894667,181.5 L315.894667,181.5 Z" id="Shape" sketch:type="MSShapeGroup"></path>
            </g>
        </g>
    </g>
</svg>