<?xml version="1.0" encoding="UTF-8" standalone="no"?>
<svg width="512px" height="512px" viewBox="0 0 512 512" version="1.1" xmlns="http://www.w3.org/2000/svg" xmlns:xlink="http://www.w3.org/1999/xlink" xmlns:sketch="http://www.bohemiancoding.com/sketch/ns">
    <!-- Generator: Sketch 3.0.4 (8053) - http://www.bohemiancoding.com/sketch -->
    <title>previous</title>
    <desc>Created with Sketch.</desc>
    <defs></defs>
    <g id="Page-1" stroke="none" stroke-width="1" fill="none" fill-rule="evenodd" sketch:type="MSPage">
        <g id="previous" sketch:type="MSArtboardGroup" fill="#000000">
            <g id="fi-next-4" sketch:type="MSLayerGroup" transform="translate(256.000000, 256.000000) scale(-1, -1) translate(-256.000000, -256.000000) translate(18.000000, 73.000000)">
                <path d="M474.565897,349.4751 L474.565897,15.6831 C474.565897,15.6709 474.572,15.6648 474.572,15.6526 C474.572,15.6404 474.565897,15.6282 474.565897,15.6221 L474.565897,14.1886 L474.419436,14.1886 C473.668821,6.344 467.132974,0.183 459.083692,0.183 C458.900615,0.183 458.729744,0.2318 458.552769,0.2379 L430.670154,0.2379 C430.236872,0.2013 429.815795,0.1098 429.370308,0.1098 C420.826718,0.1098 413.888103,7.0394 413.888103,15.5855 C413.888103,16.2992 414.004051,16.9885 414.101692,17.6778 L414.101692,158.8379 L210.636103,41.4129 C208.744308,39.5402 206.144615,38.3812 203.270308,38.3812 C197.582718,38.3812 192.981385,42.9135 192.816615,48.5621 L192.78,48.5621 L192.78,141.581 L19.2108718,41.4068 C17.3190769,39.5341 14.7193846,38.3751 11.8450769,38.3751 C6.15748718,38.3751 1.55005128,42.9074 1.39138462,48.556 L1.36087179,48.556 L1.36087179,317.1451 C1.36087179,322.934 6.05984615,327.6249 11.8450769,327.6249 C14.7926154,327.6249 17.4472308,326.4049 19.3512308,324.4468 L192.78,224.358 L192.78,317.1512 C192.78,322.9401 197.472872,327.631 203.264205,327.631 C206.211744,327.631 208.866359,326.411 210.770359,324.4529 L414.101692,207.1072 L414.101692,349.7374 L414.181026,349.7374 C414.168821,349.9753 414.107795,350.1949 414.107795,350.4328 C414.107795,358.9667 421.028103,365.8841 429.559487,365.9024 L429.559487,365.9024 L459.169128,365.9024 L459.169128,365.756 C467.718821,365.756 474.651333,358.8264 474.651333,350.2803 C474.645231,349.9997 474.578103,349.7435 474.565897,349.4751 L474.565897,349.4751 Z" id="Shape" sketch:type="MSShapeGroup"></path>
            </g>
        </g>
    </g>
</svg>