<?xml version="1.0" encoding="UTF-8" standalone="no"?>
<svg width="512px" height="512px" viewBox="0 0 512 512" version="1.1" xmlns="http://www.w3.org/2000/svg" xmlns:xlink="http://www.w3.org/1999/xlink" xmlns:sketch="http://www.bohemiancoding.com/sketch/ns">
    <!-- Generator: Sketch 3.0.4 (8053) - http://www.bohemiancoding.com/sketch -->
    <title>rewind</title>
    <desc>Created with Sketch.</desc>
    <defs></defs>
    <g id="Page-1" stroke="none" stroke-width="1" fill="none" fill-rule="evenodd" sketch:type="MSPage">
        <g id="rewind" sketch:type="MSArtboardGroup" fill="#000000">
            <g id="fi-fast-forward-2" sketch:type="MSLayerGroup" transform="translate(256.000000, 256.000000) rotate(-180.000000) translate(-256.000000, -256.000000) translate(31.000000, 111.000000)">
                <path d="M445.968493,147.937021 C445.968493,143.605532 443.367123,139.897234 439.643836,138.249787 L439.74863,138.064681 L209.262329,4.86212766 C207.35137,2.96787234 204.725342,1.79553191 201.821918,1.79553191 C196.076712,1.79553191 191.428767,6.38 191.262329,12.093617 L191.231507,12.093617 L191.231507,106.183191 L15.9041096,4.86212766 C13.9931507,2.96787234 11.3671233,1.79553191 8.46369863,1.79553191 C2.71849315,1.79553191 -1.93561644,6.38 -2.09589041,12.093617 L-2.12671233,12.093617 L-2.12671233,283.774255 C-2.12671233,289.629787 2.61986301,294.374681 8.46369863,294.374681 C11.4410959,294.374681 14.1226027,293.140638 16.0458904,291.16 L191.237671,189.919149 L191.237671,283.780426 C191.237671,289.635957 195.978082,294.380851 201.828082,294.380851 C204.805479,294.380851 207.486986,293.146809 209.410274,291.16617 L440.852055,157.414468 L440.660959,157.081277 C443.817123,155.242553 445.968493,151.855106 445.968493,147.937021 L445.968493,147.937021 Z" id="Shape" sketch:type="MSShapeGroup"></path>
            </g>
        </g>
    </g>
</svg>