<?xml version="1.0" encoding="UTF-8" standalone="no"?>
<svg width="560px" height="560px" viewBox="0 0 560 560" version="1.1" xmlns="http://www.w3.org/2000/svg" xmlns:xlink="http://www.w3.org/1999/xlink" xmlns:sketch="http://www.bohemiancoding.com/sketch/ns">
    <!-- Generator: Sketch 3.0.3 (7892) - http://www.bohemiancoding.com/sketch -->
    <title>share</title>
    <desc>Created with Sketch.</desc>
    <defs></defs>
    <g id="Page-1" stroke="none" stroke-width="1" fill="none" fill-rule="evenodd" sketch:type="MSPage">
        <g id="share" sketch:type="MSArtboardGroup" fill="#010101">
            <g id="android-share" sketch:type="MSLayerGroup" transform="translate(40.000000, 24.000000)">
                <path d="M400,352 C377.9,352 357.9,361 343.4,375.4 L158.3,272.6 C159.4,267.2 160,261.7 160,256 C160,250.3 159.4,244.8 158.3,239.4 L343.5,136.6 C357.9,151 377.9,160 400,160 C444.2,160 480,124.2 480,80 C480,35.8 444.2,0 400,0 C355.8,0 320,35.8 320,80 C320,84.8 320.4,89.4 321.2,94 L134.7,197.6 C120.3,184.2 101.1,176 80,176 C35.8,176 0,211.8 0,256 C0,300.2 35.8,336 80,336 C101.1,336 120.3,327.8 134.7,314.4 L321.2,418 C320.4,422.5 320,427.2 320,432 C320,476.2 355.8,512 400,512 C444.2,512 480,476.2 480,432 C480,387.8 444.2,352 400,352 L400,352 Z" id="Shape" sketch:type="MSShapeGroup"></path>
            </g>
        </g>
    </g>
</svg>