<?xml version="1.0" encoding="UTF-8" standalone="no"?>
<svg width="512px" height="512px" viewBox="0 0 512 512" version="1.1" xmlns="http://www.w3.org/2000/svg" xmlns:xlink="http://www.w3.org/1999/xlink" xmlns:sketch="http://www.bohemiancoding.com/sketch/ns">
    <!-- Generator: Sketch 3.0.4 (8053) - http://www.bohemiancoding.com/sketch -->
    <title>share</title>
    <desc>Created with Sketch.</desc>
    <defs></defs>
    <g id="Page-1" stroke="none" stroke-width="1" fill="none" fill-rule="evenodd" sketch:type="MSPage">
        <g id="share" sketch:type="MSArtboardGroup" fill="#000000">
            <g id="fi-share" sketch:type="MSLayerGroup" transform="translate(94.000000, 66.000000)">
                <path d="M269.443029,135.54878 C262.602,135.54878 256.084971,136.869512 250.053943,139.172683 L108.762171,57.5004878 C108.840857,56.3002439 108.942686,55.1046341 108.942686,53.8858537 C108.942686,23.814878 84.5917714,-0.565365854 54.5569714,-0.565365854 C24.5221714,-0.565365854 0.171257143,23.814878 0.171257143,53.8858537 C0.171257143,83.9568293 24.5221714,108.337073 54.5569714,108.337073 C66.42,108.337073 77.3619429,104.490732 86.2997143,98.0353659 L217.487314,173.868537 C215.908971,178.966098 215.057314,184.388049 215.057314,190.004634 C215.057314,195.713902 215.941371,201.21 217.570629,206.381707 L86.5218857,282.131463 C77.5424571,275.57878 66.5218286,271.667561 54.5569714,271.667561 C24.5221714,271.667561 0.171257143,296.047805 0.171257143,326.11878 C0.171257143,356.189756 24.5221714,380.57 54.5569714,380.57 C84.5917714,380.57 108.942686,356.189756 108.942686,326.11878 C108.942686,324.992683 108.840857,323.89439 108.776057,322.782195 L250.364057,240.938537 C256.307143,243.172195 262.722343,244.45122 269.443029,244.45122 C299.477829,244.45122 323.828743,220.070976 323.828743,190 C323.828743,159.929024 299.477829,135.54878 269.443029,135.54878 L269.443029,135.54878 Z" id="Shape" sketch:type="MSShapeGroup"></path>
            </g>
        </g>
    </g>
</svg>