<?xml version="1.0" encoding="UTF-8" standalone="no"?>
<svg width="512px" height="512px" viewBox="0 0 512 512" version="1.1" xmlns="http://www.w3.org/2000/svg" xmlns:xlink="http://www.w3.org/1999/xlink" xmlns:sketch="http://www.bohemiancoding.com/sketch/ns">
    <!-- Generator: Sketch 3.0.4 (8053) - http://www.bohemiancoding.com/sketch -->
    <title>subtitles</title>
    <desc>Created with Sketch.</desc>
    <defs></defs>
    <g id="Page-1" stroke="none" stroke-width="1" fill="none" fill-rule="evenodd" sketch:type="MSPage">
        <g id="subtitles" sketch:type="MSArtboardGroup" fill="#000000">
            <g id="fi-comment" sketch:type="MSLayerGroup" transform="translate(67.000000, 66.000000)">
                <path d="M379.350805,15.0062222 C378.497506,6.302 371.452831,-0.511111111 362.780935,-0.511111111 L13.7966494,-0.511111111 L13.7966494,-0.465111111 C5.33807792,-0.224888889 -1.47838961,6.46044444 -2.31184416,15.0062222 L-2.48051948,15.0062222 L-2.48051948,302.976444 L-2.14316883,302.976444 C-0.630051948,310.704444 5.90363636,316.520889 13.8016104,316.745778 L13.8016104,316.791778 L71.1710649,316.791778 L71.1710649,351.261111 C71.1710649,360.788222 78.6622338,368.506 87.9096104,368.506 C93.6892208,368.506 98.7842078,365.485333 101.790597,360.890444 L144.599403,316.786667 L362.780935,316.786667 C370.887273,316.786667 377.639247,310.852667 379.18213,302.971333 L379.519481,302.971333 L379.519481,15.0062222 L379.350805,15.0062222 L379.350805,15.0062222 Z" id="Shape" sketch:type="MSShapeGroup"></path>
            </g>
        </g>
    </g>
</svg>