<?xml version="1.0" encoding="UTF-8" standalone="no"?>
<svg width="560px" height="560px" viewBox="0 0 560 560" version="1.1" xmlns="http://www.w3.org/2000/svg" xmlns:xlink="http://www.w3.org/1999/xlink" xmlns:sketch="http://www.bohemiancoding.com/sketch/ns">
    <!-- Generator: Sketch 3.0.3 (7892) - http://www.bohemiancoding.com/sketch -->
    <title>subtitles</title>
    <desc>Created with Sketch.</desc>
    <defs></defs>
    <g id="Page-1" stroke="none" stroke-width="1" fill="none" fill-rule="evenodd" sketch:type="MSPage">
        <g id="subtitles" sketch:type="MSArtboardGroup" fill="#000000">
            <g id="ios7-chatbubble" sketch:type="MSLayerGroup" transform="translate(88.000000, 120.000000)">
                <path d="M192,0 C85.9,0 0,69.1 0,154.3 C0,185 11.2,213.6 30.4,237.6 C31.3,238.5 33.3,241.4 34,242.5 C34,242.5 33,240.9 32.9,240.6 L32.9,240.6 L32.9,240.6 L32.9,240.6 C35.2,243.9 36.5,247.7 36.5,251.8 C36.5,253.2 18.6,309.8 18.6,309.8 L18.6,309.8 C17.3,314.2 20.7,318.7 26.2,319.8 C27,320 27.8,320 28.6,320 C29.9,320 31.1,319.8 32.3,319.5 L33.9,318.9 L84.5,296.9 C85.4,296.5 93.5,293.4 94.5,293 L95.1,292.8 C95.1,292.8 95,292.8 94.5,293 C97.9,291.8 101.7,291.2 105.7,291.2 C109.3,291.2 112.8,291.7 116,292.7 C116.1,292.7 116.2,292.7 116.2,292.8 C116.7,293 117.2,293.1 117.7,293.3 C140.8,301.2 166.1,303.6 192.8,303.6 C298.8,303.6 383.8,239.5 383.8,154.3 C384,69.1 298,0 192,0 L192,0 L192,0 Z" id="Shape" sketch:type="MSShapeGroup"></path>
            </g>
        </g>
    </g>
</svg>