<?xml version="1.0" encoding="UTF-8" standalone="no"?>
<svg width="560px" height="560px" viewBox="0 0 560 560" version="1.1" xmlns="http://www.w3.org/2000/svg" xmlns:xlink="http://www.w3.org/1999/xlink" xmlns:sketch="http://www.bohemiancoding.com/sketch/ns">
    <!-- Generator: Sketch 3.0.3 (7892) - http://www.bohemiancoding.com/sketch -->
    <title>volume-medium</title>
    <desc>Created with Sketch.</desc>
    <defs></defs>
    <g id="Page-1" stroke="none" stroke-width="1" fill="none" fill-rule="evenodd" sketch:type="MSPage">
        <g id="volume-medium" sketch:type="MSArtboardGroup" fill="#000000">
            <g sketch:type="MSLayerGroup" transform="translate(96.000000, 129.000000)" id="Group">
                <g sketch:type="MSShapeGroup">
                    <path d="M199,303.7 L199,0.4 L104.3,88 L0,88 L0,216 L104.3,216 L199,303.7 Z" id="Shape"></path>
                    <path d="M255.3,251.6 C275.8,223.8 288.1,189.3 288.1,152 C288.1,114.6 275.8,80.2 255.3,52.4 L234.9,67.7 C252.3,91.3 262.7,120.4 262.7,152 C262.7,183.6 252.3,212.7 234.9,236.3 L255.3,251.6 L255.3,251.6 Z" id="Shape"></path>
                    <path d="M321.8,297.6 C351.8,256.9 369.8,206.6 369.8,152 C369.8,97.4 351.8,47.1 321.8,6.4 L301.4,21.7 C328.3,58.1 344.4,103.1 344.4,152 C344.4,200.9 328.3,245.8 301.4,282.3 L321.8,297.6 L321.8,297.6 Z" id="Shape"></path>
                </g>
            </g>
        </g>
    </g>
</svg>