<?xml version="1.0" encoding="UTF-8" standalone="no"?>
<svg width="512px" height="512px" viewBox="0 0 512 512" version="1.1" xmlns="http://www.w3.org/2000/svg" xmlns:xlink="http://www.w3.org/1999/xlink" xmlns:sketch="http://www.bohemiancoding.com/sketch/ns">
    <!-- Generator: Sketch 3.0.4 (8053) - http://www.bohemiancoding.com/sketch -->
    <title>volume-high</title>
    <desc>Created with Sketch.</desc>
    <defs></defs>
    <g id="Page-1" stroke="none" stroke-width="1" fill="none" fill-rule="evenodd" sketch:type="MSPage">
        <g id="volume-high" sketch:type="MSArtboardGroup" fill="#000000">
            <g id="fi-volume-none-3" sketch:type="MSLayerGroup" transform="translate(4.000000, 54.000000)">
                <path d="M235.405447,12.772 L235.285957,12.772 C234.703447,5.555 230.391872,-0.087 225.094511,-0.087 C223.212553,-0.087 221.479957,0.669 219.961447,1.908 L219.866851,1.684 L117.987234,84.389 L117.987234,84.473 L79.4519149,115.756 L7.35502128,115.756 L7.35502128,116.036 C7.29029787,116.036 7.23553191,116.008 7.17080851,116.008 C2.9787234,116.008 -0.421744681,120.796 -0.421744681,126.683 L-0.421744681,271.303 C-0.421744681,277.197 2.98370213,281.971 7.17080851,281.971 C7.23553191,281.971 7.29029787,281.95 7.35502128,281.943 L7.35502128,282.23 L79.4519149,282.23 L136.826723,328.801 L136.826723,328.584 L219.219617,395.469 C220.892468,397.093 222.908851,398.073 225.094511,398.073 C230.79017,398.073 235.405447,391.584 235.405447,383.583 C235.405447,383.016 235.330766,382.498 235.285957,381.952 L235.405447,381.952 L235.405447,12.772 L235.405447,12.772 Z" id="Shape" sketch:type="MSShapeGroup"></path>
                <g id="Group-3" transform="translate(252.000000, 9.000000)" sketch:type="MSShapeGroup">
                    <path d="M154.047529,14.2324648 C153.899176,14.0841549 153.728,13.9928873 153.579647,13.8502817 L153.625294,13.8046479 L142.647176,2.83542254 L142.521647,2.96091549 C136.530471,-1.8078169 127.874647,-1.53401408 122.248647,3.87929577 L122.225824,3.85647887 L102.717412,23.3535211 L102.848647,23.4847183 C98.438,29.0919718 98.4551176,36.9752113 102.905706,42.5653521 L102.780176,42.6908451 L104.012647,43.9229577 L104.012647,43.9229577 L104.012647,43.9229577 L113.752588,53.6657746 L113.929471,53.4889437 C114.072118,53.6372535 114.169118,53.8140845 114.311765,53.9623944 C196.236824,135.863662 196.482176,268.943239 115.099176,351.175352 L114.990765,351.066972 L105.250824,360.804085 L105.250824,360.804085 L104.018353,362.036197 L104.143882,362.16169 C99.3737647,368.151127 99.6533529,376.810141 105.056824,382.428803 L105.034,382.45162 L124.548118,401.96007 L124.679353,401.828873 C130.288235,406.238239 138.173765,406.215423 143.765529,401.766127 L143.891059,401.89162 L145.123529,400.659507 L154.863471,390.922394 L154.840647,390.899577 C258.128529,286.757535 257.877471,118.037958 154.047529,14.2324648 L154.047529,14.2324648 Z" id="Shape"></path>
                    <path d="M99.9101176,89.3970423 C99.7617647,89.2487324 99.5905882,89.1574648 99.4422353,89.0148592 L99.4878824,88.9692254 L88.5040588,78 L88.3785294,78.125493 C82.3873529,73.3567606 73.7258235,73.6362676 68.0998235,79.038169 L68.077,79.0153521 L67.8772941,79.215 C67.8715882,79.2207042 67.8658824,79.2264085 67.8601765,79.2264085 C67.8544706,79.2321127 67.8487647,79.2378169 67.8487647,79.2435211 L49.8809412,97.2004225 C49.8752353,97.2061268 49.8695294,97.211831 49.8638235,97.211831 C49.8581176,97.2175352 49.8524118,97.2232394 49.8524118,97.2289437 L48.5685882,98.5123944 L48.6998235,98.6435915 C44.2891765,104.256549 44.312,112.134085 48.7625882,117.718521 L48.6370588,117.844014 L59.6094706,128.818944 L59.7863529,128.642113 C59.929,128.790423 60.026,128.967254 60.1686471,129.115563 C100.629059,169.564225 100.863,235.17993 60.9389412,275.976549 L60.8590588,275.89669 L51.1191176,285.633803 C51.1191176,285.633803 51.1191176,285.633803 51.1134118,285.633803 L51.1077059,285.633803 L49.8809412,286.860211 L50.0064706,286.985704 C45.2363529,292.975141 45.5102353,301.639859 50.9194118,307.258521 L50.8965882,307.281338 L70.4107059,326.789789 L70.5419412,326.658592 C76.1508235,331.067958 84.0306471,331.045141 89.6224118,326.595845 L89.7479412,326.721338 L100.720353,315.752113 L100.697529,315.729296 C162.537882,253.039859 162.286824,151.761338 99.9101176,89.3970423 L99.9101176,89.3970423 Z" id="Shape"></path>
                    <path d="M29.3209366,142.648429 C29.241719,142.569639 29.1503141,142.521153 29.0710965,142.445394 L29.0954712,142.421151 L23.2303227,136.59375 L23.1632924,136.660418 C19.9641205,134.127029 15.339032,134.275517 12.3348572,137.145277 L12.3226699,137.133156 L12.2160308,137.239219 C12.212984,137.242249 12.2099372,137.245279 12.2068903,137.245279 C12.2038435,137.24831 12.2007967,137.25134 12.2007967,137.254371 L2.60632781,146.793974 C2.60328098,146.797005 2.60023415,146.800035 2.59718732,146.800035 C2.59414049,146.803066 2.59109366,146.806096 2.59109366,146.809126 L1.90555682,147.49096 L1.97563392,147.560658 C-0.379565962,150.542542 -0.367378641,154.727482 2.00914906,157.694214 L1.94211879,157.760882 L7.80117362,163.591314 L7.89562536,163.497372 C7.97179612,163.576162 8.02359223,163.670103 8.09976299,163.748893 C29.7048372,185.237245 29.8297573,220.095588 8.51108509,241.768792 L8.46842947,241.726367 L3.26749001,246.899208 C3.26749001,246.899208 3.26749001,246.899208 3.26444318,246.899208 L3.26139634,246.899208 L2.60632781,247.550737 L2.67335808,247.617405 C0.126207881,250.799294 0.27245574,255.402425 3.16085094,258.387339 L3.14866362,258.399461 L13.5688235,268.763325 L13.6389006,268.693627 C16.6339349,271.036103 20.8416077,271.023981 23.8275014,268.660293 L23.8945317,268.726961 L29.7535865,262.89956 L29.7413992,262.887438 C62.7629469,229.583675 62.6288864,175.779461 29.3209366,142.648429 L29.3209366,142.648429 Z" id="Shape"></path>
                </g>
            </g>
        </g>
    </g>
</svg>