<?xml version="1.0" encoding="UTF-8" standalone="no"?>
<svg width="512px" height="512px" viewBox="0 0 512 512" version="1.1" xmlns="http://www.w3.org/2000/svg" xmlns:xlink="http://www.w3.org/1999/xlink" xmlns:sketch="http://www.bohemiancoding.com/sketch/ns">
    <!-- Generator: Sketch 3.0.4 (8053) - http://www.bohemiancoding.com/sketch -->
    <title>volume-mute</title>
    <desc>Created with Sketch.</desc>
    <defs></defs>
    <g id="Page-1" stroke="none" stroke-width="1" fill="none" fill-rule="evenodd" sketch:type="MSPage">
        <g id="volume-mute" sketch:type="MSArtboardGroup" fill="#000000">
            <g id="fi-volume-none-2" sketch:type="MSLayerGroup" transform="translate(4.000000, 54.000000)">
                <path d="M235.405447,12.772 L235.285957,12.772 C234.703447,5.555 230.391872,-0.087 225.094511,-0.087 C223.212553,-0.087 221.479957,0.669 219.961447,1.908 L219.866851,1.684 L117.987234,84.389 L117.987234,84.473 L79.4519149,115.756 L7.35502128,115.756 L7.35502128,116.036 C7.29029787,116.036 7.23553191,116.008 7.17080851,116.008 C2.9787234,116.008 -0.421744681,120.796 -0.421744681,126.683 L-0.421744681,271.303 C-0.421744681,277.197 2.98370213,281.971 7.17080851,281.971 C7.23553191,281.971 7.29029787,281.95 7.35502128,281.943 L7.35502128,282.23 L79.4519149,282.23 L136.826723,328.801 L136.826723,328.584 L219.219617,395.469 C220.892468,397.093 222.908851,398.073 225.094511,398.073 C230.79017,398.073 235.405447,391.584 235.405447,383.583 C235.405447,383.016 235.330766,382.498 235.285957,381.952 L235.405447,381.952 L235.405447,12.772 L235.405447,12.772 Z" id="Shape" sketch:type="MSShapeGroup"></path>
                <path d="M252.950856,144.37863 L300.064036,144.37863 L316.548771,176.777736 L335.667163,144.37863 L379.463887,144.37863 L344.153388,199.763589 L382,260.62137 L335.667163,260.62137 L316.548771,223.187267 L294.016381,260.62137 L251,260.62137 L288.651526,199.763589 L252.950856,144.37863 Z" id="x" sketch:type="MSShapeGroup"></path>
            </g>
        </g>
    </g>
</svg>