<?xml version="1.0" encoding="UTF-8" standalone="no"?>
<svg width="512px" height="512px" viewBox="0 0 512 512" version="1.1" xmlns="http://www.w3.org/2000/svg" xmlns:xlink="http://www.w3.org/1999/xlink" xmlns:sketch="http://www.bohemiancoding.com/sketch/ns">
    <!-- Generator: Sketch 3.0.4 (8053) - http://www.bohemiancoding.com/sketch -->
    <title>volume-medium</title>
    <desc>Created with Sketch.</desc>
    <defs></defs>
    <g id="Page-1" stroke="none" stroke-width="1" fill="none" fill-rule="evenodd" sketch:type="MSPage">
        <g id="volume-medium" sketch:type="MSArtboardGroup" fill="#000000">
            <g id="fi-volume-none-3" sketch:type="MSLayerGroup" transform="translate(4.000000, 54.000000)">
                <path d="M235.405447,12.772 L235.285957,12.772 C234.703447,5.555 230.391872,-0.087 225.094511,-0.087 C223.212553,-0.087 221.479957,0.669 219.961447,1.908 L219.866851,1.684 L117.987234,84.389 L117.987234,84.473 L79.4519149,115.756 L7.35502128,115.756 L7.35502128,116.036 C7.29029787,116.036 7.23553191,116.008 7.17080851,116.008 C2.9787234,116.008 -0.421744681,120.796 -0.421744681,126.683 L-0.421744681,271.303 C-0.421744681,277.197 2.98370213,281.971 7.17080851,281.971 C7.23553191,281.971 7.29029787,281.95 7.35502128,281.943 L7.35502128,282.23 L79.4519149,282.23 L136.826723,328.801 L136.826723,328.584 L219.219617,395.469 C220.892468,397.093 222.908851,398.073 225.094511,398.073 C230.79017,398.073 235.405447,391.584 235.405447,383.583 C235.405447,383.016 235.330766,382.498 235.285957,381.952 L235.405447,381.952 L235.405447,12.772 L235.405447,12.772 Z" id="Shape" sketch:type="MSShapeGroup"></path>
                <g id="Group-2" transform="translate(252.000000, 75.000000)" sketch:type="MSShapeGroup">
                    <path d="M99.9101176,14.3970423 C99.7617647,14.2487324 99.5905882,14.1574648 99.4422353,14.0148592 L99.4878824,13.9692254 L88.5040588,3 L88.3785294,3.12549296 C82.3873529,-1.64323944 73.7258235,-1.36373239 68.0998235,4.03816901 L68.077,4.01535211 L67.8772941,4.215 C67.8715882,4.22070423 67.8658824,4.22640845 67.8601765,4.22640845 C67.8544706,4.23211268 67.8487647,4.2378169 67.8487647,4.24352113 L49.8809412,22.2004225 C49.8752353,22.2061268 49.8695294,22.211831 49.8638235,22.211831 C49.8581176,22.2175352 49.8524118,22.2232394 49.8524118,22.2289437 L48.5685882,23.5123944 L48.6998235,23.6435915 C44.2891765,29.2565493 44.312,37.1340845 48.7625882,42.7185211 L48.6370588,42.8440141 L59.6094706,53.8189437 L59.7863529,53.6421127 C59.929,53.7904225 60.026,53.9672535 60.1686471,54.1155634 C100.629059,94.5642254 100.863,160.17993 60.9389412,200.976549 L60.8590588,200.89669 L51.1191176,210.633803 C51.1191176,210.633803 51.1191176,210.633803 51.1134118,210.633803 L51.1077059,210.633803 L49.8809412,211.860211 L50.0064706,211.985704 C45.2363529,217.975141 45.5102353,226.639859 50.9194118,232.258521 L50.8965882,232.281338 L70.4107059,251.789789 L70.5419412,251.658592 C76.1508235,256.067958 84.0306471,256.045141 89.6224118,251.595845 L89.7479412,251.721338 L100.720353,240.752113 L100.697529,240.729296 C162.537882,178.039859 162.286824,76.761338 99.9101176,14.3970423 L99.9101176,14.3970423 Z" id="Shape"></path>
                    <path d="M29.3209366,67.6484287 C29.241719,67.5696391 29.1503141,67.5211532 29.0710965,67.4453939 L29.0954712,67.421151 L23.2303227,61.59375 L23.1632924,61.6604181 C19.9641205,59.127029 15.339032,59.2755172 12.3348572,62.1452773 L12.3226699,62.1331558 L12.2160308,62.2392187 C12.212984,62.2422491 12.2099372,62.2452795 12.2068903,62.2452795 C12.2038435,62.2483099 12.2007967,62.2513402 12.2007967,62.2543706 L2.60632781,71.7939745 C2.60328098,71.7970048 2.60023415,71.8000352 2.59718732,71.8000352 C2.59414049,71.8030656 2.59109366,71.806096 2.59109366,71.8091263 L1.90555682,72.4909595 L1.97563392,72.560658 C-0.379565962,75.5425418 -0.367378641,79.7274824 2.00914906,82.6942143 L1.94211879,82.7608825 L7.80117362,88.5913138 L7.89562536,88.4973724 C7.97179612,88.576162 8.02359223,88.6701034 8.09976299,88.748893 C29.7048372,110.237245 29.8297573,145.095588 8.51108509,166.768792 L8.46842947,166.726367 L3.26749001,171.899208 C3.26749001,171.899208 3.26749001,171.899208 3.26444318,171.899208 L3.26139634,171.899208 L2.60632781,172.550737 L2.67335808,172.617405 C0.126207881,175.799294 0.27245574,180.402425 3.16085094,183.387339 L3.14866362,183.399461 L13.5688235,193.763325 L13.6389006,193.693627 C16.6339349,196.036103 20.8416077,196.023981 23.8275014,193.660293 L23.8945317,193.726961 L29.7535865,187.89956 L29.7413992,187.887438 C62.7629469,154.583675 62.6288864,100.779461 29.3209366,67.6484287 L29.3209366,67.6484287 Z" id="Shape"></path>
                </g>
            </g>
        </g>
    </g>
</svg>