<?xml version="1.0" encoding="UTF-8" standalone="no"?>
<svg width="512px" height="512px" viewBox="0 0 512 512" version="1.1" xmlns="http://www.w3.org/2000/svg" xmlns:xlink="http://www.w3.org/1999/xlink" xmlns:sketch="http://www.bohemiancoding.com/sketch/ns">
    <!-- Generator: Sketch 3.0.4 (8053) - http://www.bohemiancoding.com/sketch -->
    <title>volume-low</title>
    <desc>Created with Sketch.</desc>
    <defs></defs>
    <g id="Page-1" stroke="none" stroke-width="1" fill="none" fill-rule="evenodd" sketch:type="MSPage">
        <g id="volume-low" sketch:type="MSArtboardGroup">
            <g id="fi-volume-none-3" sketch:type="MSLayerGroup" transform="translate(4.000000, 54.000000)">
                <path d="M235.405447,12.772 L235.285957,12.772 C234.703447,5.555 230.391872,-0.087 225.094511,-0.087 C223.212553,-0.087 221.479957,0.669 219.961447,1.908 L219.866851,1.684 L117.987234,84.389 L117.987234,84.473 L79.4519149,115.756 L7.35502128,115.756 L7.35502128,116.036 C7.29029787,116.036 7.23553191,116.008 7.17080851,116.008 C2.9787234,116.008 -0.421744681,120.796 -0.421744681,126.683 L-0.421744681,271.303 C-0.421744681,277.197 2.98370213,281.971 7.17080851,281.971 C7.23553191,281.971 7.29029787,281.95 7.35502128,281.943 L7.35502128,282.23 L79.4519149,282.23 L136.826723,328.801 L136.826723,328.584 L219.219617,395.469 C220.892468,397.093 222.908851,398.073 225.094511,398.073 C230.79017,398.073 235.405447,391.584 235.405447,383.583 C235.405447,383.016 235.330766,382.498 235.285957,381.952 L235.405447,381.952 L235.405447,12.772 L235.405447,12.772 Z" id="Shape" fill="#000000" sketch:type="MSShapeGroup"></path>
                <g id="Group" transform="translate(255.000000, 135.000000)"></g>
                <g id="Group" transform="translate(255.000000, 135.000000)" fill="#000000" sketch:type="MSShapeGroup">
                    <path d="M29.3209366,7.6484287 C29.241719,7.56963908 29.1503141,7.52115317 29.0710965,7.44539393 L29.0954712,7.42115097 L23.2303227,1.59375 L23.1632924,1.66041813 C19.9641205,-0.872970951 15.339032,-0.724482835 12.3348572,2.14527729 L12.3226699,2.13315581 L12.2160308,2.23921875 C12.212984,2.24224912 12.2099372,2.24527949 12.2068903,2.24527949 C12.2038435,2.24830986 12.2007967,2.25134023 12.2007967,2.2543706 L2.60632781,11.7939745 C2.60328098,11.7970048 2.60023415,11.8000352 2.59718732,11.8000352 C2.59414049,11.8030656 2.59109366,11.806096 2.59109366,11.8091263 L1.90555682,12.4909595 L1.97563392,12.560658 C-0.379565962,15.5425418 -0.367378641,19.7274824 2.00914906,22.6942143 L1.94211879,22.7608825 L7.80117362,28.5913138 L7.89562536,28.4973724 C7.97179612,28.576162 8.02359223,28.6701034 8.09976299,28.748893 C29.7048372,50.2372447 29.8297573,85.0955876 8.51108509,106.768792 L8.46842947,106.726367 L3.26749001,111.899208 C3.26749001,111.899208 3.26749001,111.899208 3.26444318,111.899208 L3.26139634,111.899208 L2.60632781,112.550737 L2.67335808,112.617405 C0.126207881,115.799294 0.27245574,120.402425 3.16085094,123.387339 L3.14866362,123.399461 L13.5688235,133.763325 L13.6389006,133.693627 C16.6339349,136.036103 20.8416077,136.023981 23.8275014,133.660293 L23.8945317,133.726961 L29.7535865,127.89956 L29.7413992,127.887438 C62.7629469,94.5836752 62.6288864,40.7794608 29.3209366,7.6484287 L29.3209366,7.6484287 Z" id="Shape"></path>
                </g>
            </g>
        </g>
    </g>
</svg>