<?xml version="1.0" encoding="UTF-8" standalone="no"?>
<svg width="512px" height="512px" viewBox="0 0 512 512" version="1.1" xmlns="http://www.w3.org/2000/svg" xmlns:xlink="http://www.w3.org/1999/xlink" xmlns:sketch="http://www.bohemiancoding.com/sketch/ns">
    <!-- Generator: Sketch 3.0.3 (7892) - http://www.bohemiancoding.com/sketch -->
    <title>volume-high</title>
    <desc>Created with Sketch.</desc>
    <defs></defs>
    <g id="Page-1" stroke="none" stroke-width="1" fill="none" fill-rule="evenodd" sketch:type="MSPage">
        <g id="volume-high" sketch:type="MSArtboardGroup" fill="#000000">
            <g sketch:type="MSLayerGroup" transform="translate(32.000000, 64.000000)" id="Group">
                <g sketch:type="MSShapeGroup">
                    <path d="M199,343.8 L199,40.3 L104.1,128 L0,128 L0,256 L104.1,256 L199,343.8 Z" id="Shape"></path>
                    <path d="M255.1,291.7 C275.6,263.8 287.9,229.4 287.9,192 C287.9,154.6 275.6,120.2 255.1,92.3 L234.7,107.6 C252.1,131.2 262.5,160.3 262.5,192 C262.5,223.6 252.1,252.8 234.7,276.3 L255.1,291.7 L255.1,291.7 Z" id="Shape"></path>
                    <path d="M321.7,337.7 C351.7,297 369.7,246.6 369.7,192 C369.7,137.4 351.7,87.1 321.7,46.3 L301.3,61.6 C328.2,98 344.3,143.1 344.3,192 C344.3,240.9 328.2,285.9 301.3,322.3 L321.7,337.7 L321.7,337.7 Z" id="Shape"></path>
                    <path d="M364.7,15.4 C401.1,64.7 422.6,125.9 422.6,192 C422.6,258.1 401.1,319.2 364.7,368.6 L385.2,384 C424.6,330.4 448,264 448,192 C448,120 424.6,53.6 385.2,0 L364.7,15.4 L364.7,15.4 Z" id="Shape"></path>
                </g>
            </g>
        </g>
    </g>
</svg>